<svg xmlns="http://www.w3.org/2000/svg" width="40" height="40" xmlns:v="https://vecta.io/nano"><path d="M2 20V2h36v36H2z" fill="#fcfcfa"/><path d="M18.504 37.897c-.944-.051-2.342-.293-3.233-.559-.864-.258-2.137-.717-2.69-.969-.726-.332-1.81-.915-2.142-1.152-.123-.088-.24-.16-.261-.16s-.105-.051-.187-.113l-.415-.297c-.67-.464-1.392-1.074-2.139-1.807-.627-.615-1.384-1.454-1.384-1.534 0-.024-.076-.117-.169-.207s-.266-.306-.386-.48l-.386-.558c-.093-.133-.169-.259-.169-.281s-.055-.111-.121-.198-.121-.179-.121-.204-.027-.073-.06-.106c-.119-.119-.794-1.406-1.007-1.919l-.162-.381c-.62-1.423-1.208-3.73-1.315-5.164-.037-.498-.037-3.269.001-3.737.105-1.304.642-3.423 1.256-4.958.353-.882 1.09-2.267 1.677-3.154.84-1.269 2.193-2.794 3.278-3.695 1.386-1.151 2.679-1.986 4.079-2.634l1.229-.52.41-.147c.109-.044.912-.296 1.206-.379.339-.095.955-.234 1.303-.293l.59-.106c.515-.099 1.578-.136 3.198-.113 2.025.029 2.584.092 3.836.43l.82.221a17.19 17.19 0 0 1 1.592.55l.362.148a24.8 24.8 0 0 1 2.02 1.025c1.772 1.133 2.64 1.823 3.826 3.04 1.903 1.954 3.348 4.341 4.23 6.987l.471 1.689c.019.133.052.274.072.314s.088.409.151.82c.105.694.113.89.111 2.702-.002 2.058-.014 2.221-.27 3.571-.187.985-.632 2.417-1.088 3.499-1.331 3.155-3.75 6.056-6.652 7.976a16.28 16.28 0 0 1-.578.369l-.338.197a22.13 22.13 0 0 1-.917.472c-.782.386-1.065.516-1.46.667-.06.023-.157.062-.217.088-.135.057-1.191.401-1.484.483l-.338.098c-.066.021-.251.064-.41.096s-.355.076-.434.096-.308.063-.507.094l-.603.099a8.38 8.38 0 0 1-.579.073c-.488.044-2.792.055-3.499.017zm5.646-3.999c0-.027-.022-.048-.048-.048s-.048.022-.048.048.022.048.048.048.048-.022.048-.048zm-7.673-.118c0-.051-.093-.072-.12-.028-.017.027.004.049.045.049s.075-.01.075-.021zm3.707-.862c.019-.165-.063-.275-.205-.275s-.221.088-.221.243c0 .17.038.199.24.182.147-.012.173-.033.186-.15zm5.727-.757c.016-.027.007-.048-.021-.048s-.051.022-.051.048.01.048.021.048.035-.022.051-.048zm-2.828-.382c.082-.052.036-.197-.063-.197-.091 0-.141.081-.107.171.031.08.074.087.17.026zm-5.4-.101c0-.064-.032-.097-.097-.097s-.097.032-.097.097.032.097.097.097.097-.032.097-.097zm11.534-.142c0-.025-.022-.059-.048-.075s-.048.004-.048.045.022.075.048.075.048-.02.048-.045zm-18.241-.024c0-.012-.022-.035-.048-.051s-.048-.007-.048.021.022.051.048.051.048-.01.048-.021zm9.072-1.04c0-.054-.032-.097-.072-.097-.073 0-.099.102-.04.161s.113.032.113-.064zm-6.635-.772c.016-.027.007-.048-.021-.048s-.051.022-.051.048.01.048.021.048.035-.022.051-.048zm13.488 0c0-.027-.022-.048-.048-.048s-.048.022-.048.048.022.048.048.048.048-.022.048-.048zm-6.852-.7c0-.04-.033-.072-.072-.072s-.072.033-.072.072.033.072.072.072.072-.033.072-.072zm-8.734-.893c.037-.069.037-.124 0-.193-.091-.17-.386-.097-.386.097s.295.267.386.097zm17.846-.083c.013-.133-.003-.16-.113-.187-.086-.022-.152-.008-.202.043s-.064.116-.043.202c.027.11.054.126.187.113s.157-.034.17-.17zm2.759-2.161c.073-.088.03-.218-.072-.218-.089 0-.143.114-.103.217.035.092.099.092.175.001zm-23.597-.07c0-.13-.091-.174-.179-.086s-.044.179.086.179c.061 0 .094-.033.094-.094zm24.322-1.547c0-.027-.022-.048-.048-.048s-.048.022-.048.048.022.048.048.048.048-.022.048-.048zM7.203 22.714c-.02-.102-.105-.095-.127.01-.009.044.017.075.064.075s.073-.032.063-.084zm25.786.012c0-.025-.023-.054-.052-.063s-.052.019-.052.063.023.073.052.063.052-.038.052-.063zM20.34 20.215c.05-.06.05-.123 0-.331-.105-.439.108-.84.238-.447.112.339.481.518.673.326.082-.082.102-.161.102-.417 0-.385.076-.444.285-.221.105.113.182.15.31.15.305 0 .395-.213.257-.609-.077-.22-.067-.257.145-.566.178-.259.199-.425.089-.69-.126-.301-.096-.424.174-.722s.26-.223.155-.949c-.023-.157-.002-.214.148-.406.146-.187.174-.262.174-.459 0-.269-.118-.533-.357-.801-.256-.286-.284-.368-.225-.645.087-.403-.024-.66-.407-.944-.113-.084-.13-.117-.079-.151.075-.05.099-.045.768.143.542.153 1.019.354 1.365.576.123.079.24.143.261.143.075 0-.008-.65-.108-.844-.172-.334-.406-.506-.916-.673-.215-.07-.253-.101-.253-.202 0-.065.045-.179.1-.254.141-.191.196-.474.136-.698-.035-.131-.141-.272-.36-.48-.205-.194-.327-.353-.359-.466-.026-.094-.048-.455-.048-.801 0-1.002-.193-1.522-.758-2.051-.536-.501-1.047-.693-1.848-.694-.839-.001-1.479.268-1.991.837-.464.516-.614 1.025-.615 2.079 0 .689-.042.81-.36 1.061s-.437.456-.434.749a.72.72 0 0 0 .133.451c.208.314.183.365-.248.516-.49.172-.788.544-.856 1.068-.053.408-.022.428.327.209a5.1 5.1 0 0 1 .672-.337c.35-.14 1.203-.389 1.332-.389.108 0 .064.139-.078.244-.076.056-.187.19-.247.297-.092.163-.105.241-.083.488.03.332.005.398-.27.708-.382.432-.474.859-.252 1.163s.241.366.184.64c-.072.343-.033.492.182.699.232.223.296.385.236.595-.083.29-.055.543.082.745.229.336.251.429.177.748-.072.312-.042.434.131.527.141.076.397-.063.553-.299.175-.264.245-.188.228.246-.016.395.041.57.2.61s.289-.038.416-.243c.134-.216.182-.214.217.011.09.577.237.832.48.832.088 0 .187-.033.221-.074zm-.838-7.977c-.13-.144-.099-.336.084-.52.142-.142.196-.164.399-.164.266 0 .415.083.523.29.097.188.091.305-.023.409s-.217.043-.259-.165a.23.23 0 0 0-.449-.012c-.033.139-.104.25-.161.25-.019 0-.071-.04-.115-.088zm-1.043-.416c-.111-.134-.196-1.541-.156-2.575.036-.906.045-.973.169-1.227.154-.314.478-.63.796-.778.186-.086.315-.104.732-.104.466 0 .529.011.79.143.346.175.673.535.805.886.187.499.181 2.888-.009 3.517-.095.313-.359.265-.571-.105-.279-.487-.545-.635-1.118-.62-.413.011-.653.174-.91.618-.061.106-.145.22-.186.253-.1.081-.272.076-.343-.009zm1.051-1.808c.02-.136-.071-.245-.205-.245-.22 0-.297.231-.119.356.131.092.303.033.324-.11zm1.36.044c.078-.146-.018-.29-.193-.29-.092 0-.159.034-.193.097-.078.146.018.29.193.29.092 0 .159-.034.193-.097zm-1.909-.846c.121-.091.475-.091.652 0 .116.06.142.061.163.005.038-.098-.017-.284-.104-.353-.205-.164-.708 0-.815.265-.068.171-.041.192.103.083zm1.448 0c.125-.094.508-.091.647.006s.193.047.103-.111c-.139-.244-.584-.382-.822-.254-.068.036-.093.102-.093.241 0 .208.024.225.166.117zm-12.312 8.93c.005-.026-.028-.055-.075-.064-.053-.01-.084.013-.084.063 0 .084.143.085.159.001zm24.018-.001c0-.04-.033-.072-.072-.072s-.072.033-.072.072.033.072.072.072.072-.033.072-.072zm-21.281-1.224c0-.156-.014-.385-.031-.51-.03-.217-.046-.238-.363-.446-.182-.12-.352-.256-.377-.302-.03-.055-.021-.164.026-.32.092-.307.028-.805-.156-1.205-.077-.169-.141-.403-.153-.567-.017-.226-.036-.277-.099-.265-.144.027-.177.338-.081.747.104.441.108.569.023.672-.104.125-.43.059-.803-.164-.538-.321-.714-.502-.929-.954-.152-.319-.215-.407-.294-.407-.062 0-.091.023-.076.06s.072.208.13.388c.092.288.142.36.413.603.313.28.375.409.226.466-.061.023-.173-.063-.423-.326-.187-.197-.383-.437-.435-.533-.091-.168-.266-.245-.265-.115.001.16.318.587.638.86l.397.341c.029.027.017.071-.031.119-.058.058-.099.065-.17.027-.099-.053-.385-.36-.608-.652-.131-.171-.275-.235-.275-.121 0 .169.91 1.182 1.232 1.371.107.063.338.145.513.181.29.061.355.099.722.425.573.508 1.102.905 1.212.909.02.001.036-.126.036-.281zm18.859.005a10.94 10.94 0 0 0 .66-.543c.47-.429.484-.438.826-.509.18-.038.409-.123.51-.189.445-.295 1.301-1.297 1.194-1.398-.037-.036-.104.013-.229.166-.479.589-.741.783-.811.601-.02-.051.086-.181.337-.412.427-.393.79-.961.614-.961-.025 0-.163.157-.306.35-.288.388-.622.712-.735.712-.041 0-.088-.037-.105-.082-.023-.059.044-.15.237-.326.147-.134.302-.298.343-.365.101-.164.287-.728.251-.764-.068-.068-.201.096-.313.383-.183.471-.682.906-1.339 1.167-.392.156-.562-.049-.451-.543.136-.603.112-.919-.07-.919-.053 0-.071.064-.071.26 0 .186-.044.362-.154.615a1.4 1.4 0 0 0-.148.765c.003.226.013.497.021.603.015.189.009.197-.298.403-.173.115-.328.246-.346.29-.04.097-.051.973-.012.973.015 0 .194-.125.397-.277zm5.318-.253c0-.027-.023-.048-.051-.048s-.038.022-.021.048.039.048.051.048.021-.022.021-.048zM16.178 5.435c.011-.032-.015-.057-.057-.057s-.076.034-.076.076c0 .085.104.07.134-.019zm8.077.015c0-.025-.023-.054-.052-.063s-.052.019-.052.063.023.073.052.063.052-.038.052-.063z" fill="#d5ac96"/><path d="M19.662 37.911c0-.023-.32-.054-.712-.071-2.447-.102-5.256-.906-7.55-2.162-.667-.365-1.132-.659-1.975-1.25-.862-.604-2.366-1.989-2.962-2.727l-.596-.74c-.224-.278-.638-.88-1-1.455-.619-.981-1.197-2.181-1.628-3.378a19.65 19.65 0 0 1-1.005-4.44c-.078-.748-.078-2.784 0-3.475.396-3.52 1.586-6.503 3.697-9.266.711-.931 1.857-2.143 2.42-2.56l.314-.248c.139-.135.845-.657 1.507-1.113.907-.625 1.491-.943 2.904-1.58.268-.121.549-.224 1.255-.459 1.369-.457 2.852-.764 4.013-.829.273-.015.484-.047.47-.069s.486-.041 1.112-.041l1.137.048c0 .027.114.049.253.05.731.004 2.019.216 3.174.521 2.163.572 4.254 1.561 5.887 2.784l.555.412c.82.605 2.031 1.78 2.781 2.7.998 1.224 1.639 2.224 2.336 3.644.834 1.7 1.406 3.534 1.641 5.259l.102.616c.057.092.073 2.616.022 3.27a17.75 17.75 0 0 1-4.165 10.221c-.55.663-1.696 1.784-2.355 2.302l-.796.628c-1.259.994-3.722 2.188-5.622 2.724l-.338.098a6.39 6.39 0 0 1-.386.093l-.458.099c-.857.189-2.126.339-2.88.339-.252 0-.426.02-.426.048s-.153.048-.362.048c-.199 0-.362-.018-.362-.041zm-1.663-2.375c.044-.072-.007-.111-.099-.075-.043.016-.064.052-.047.078.039.063.107.062.147-.003zm3.92-.036c.011-.032-.015-.057-.057-.057s-.076.034-.076.076c0 .085.104.07.134-.019zm2.255-1.626c0-.052-.035-.102-.078-.11-.084-.016-.158.112-.11.19s.189.021.189-.079zm-7.699-.046c.066-.08.029-.171-.071-.171-.087 0-.136.083-.102.171s.099.089.173 0zm3.736-.813c.093-.124.095-.145.027-.265-.054-.097-.117-.134-.244-.145-.275-.023-.404.224-.231.444.131.166.309.153.448-.033zm5.764-.863c-.018-.12-.082-.154-.179-.092s-.029.197.093.197c.077 0 .098-.026.086-.105zm-11.152-.046c.074-.074.023-.187-.084-.187-.094 0-.143.083-.107.181.028.075.12.078.191.006zm2.907-.305a.2.2 0 0 0-.079-.289c-.074-.029-.257.092-.257.17 0 .06.146.189.215.189.035 0 .089-.032.121-.07zm5.446-.084c.022-.19-.145-.271-.28-.136s-.054.302.136.28c.1-.012.133-.045.144-.144zm-12.16-.224c.011-.078-.009-.105-.082-.105-.127 0-.175.082-.1.173s.162.063.181-.068zm18.25.038c0-.117-.138-.184-.193-.094s-.003.192.102.192c.06 0 .091-.034.091-.098zm-9.145-1.06c0-.094-.028-.124-.127-.135-.136-.016-.206.079-.155.21.018.048.075.07.155.06.099-.011.127-.041.127-.135zm6.827-.698c.073-.088.026-.171-.098-.171-.059 0-.094.033-.094.088 0 .158.095.199.191.083zm-13.478-.054c.016-.042.004-.1-.026-.131-.068-.068-.229.071-.178.153s.17.064.204-.023zm18.152-.468c.019-.1-.12-.167-.194-.093s-.006.213.093.194c.046-.009.091-.054.1-.1zm-22.515.001c.036-.098-.013-.181-.107-.181-.107 0-.158.113-.084.187s.164.069.191-.006zm11.011-.211c.03-.078-.045-.211-.119-.211s-.186.149-.159.219c.037.096.24.09.278-.008zm-8.802-.838c.108-.108.121-.202.047-.341-.057-.107-.329-.13-.423-.035s-.069.315.049.398c.142.099.211.095.327-.021zm17.855 0c.116-.116.124-.255.021-.358-.09-.09-.315-.1-.397-.018-.14.14-.005.473.191.473.049 0 .132-.043.186-.097zM5.101 25.955c.046-.046-.017-.164-.087-.164-.081 0-.134.081-.094.145.033.053.137.064.182.019zm3.267-.041c.128-.154-.06-.392-.227-.286s-.108.357.084.357c.047 0 .111-.032.143-.07zm23.597 0c.032-.038.051-.12.042-.181-.029-.204-.378-.154-.378.054 0 .178.223.262.336.127zm3.203.038c.017-.017.007-.061-.022-.097-.041-.049-.071-.052-.12-.011-.036.03-.054.074-.039.097.031.05.136.057.181.011zm-28.391-.081c0-.035-.014-.079-.032-.096-.044-.044-.167.065-.134.118.041.067.166.05.166-.022zm26.686-.005c0-.038-.017-.08-.038-.093-.062-.038-.17.05-.134.109.048.077.172.066.172-.016zm-25.979-1.55c.04-.105-.062-.203-.135-.13-.062.062-.024.206.055.206.028 0 .064-.034.08-.076zm25.198-.061c.012-.079-.009-.105-.084-.105-.065 0-.1.031-.1.088 0 .183.158.197.184.016zm2.105-1.075c-.041-.067-.166-.05-.166.022 0 .035.014.079.032.096.044.044.167-.065.134-.118zm-29.409.03c0-.04-.031-.072-.07-.072-.081 0-.135.069-.09.114.058.058.16.031.16-.042zm1.902-.44a.17.17 0 0 0-.14-.211.17.17 0 0 0-.14.211c.017.043.08.079.14.079s.124-.035.14-.079zm25.782.002c.016-.042-.006-.112-.05-.155-.073-.073-.085-.073-.158 0-.099.099-.053.231.079.231.055 0 .113-.034.129-.076zm-12.703-2.449c.096-.07.108-.208.051-.593-.04-.272.036-.401.119-.202a.58.58 0 0 0 .354.352c.328.137.531-.032.542-.45.01-.382.007-.378.162-.23a.62.62 0 0 0 .334.16c.164.022.214.007.319-.098.146-.146.16-.328.047-.609l-.077-.193.198-.296c.217-.325.233-.415.125-.72-.12-.339-.097-.475.114-.671.313-.292.36-.471.224-.859-.081-.234-.064-.298.154-.585.277-.364.206-.756-.242-1.328l-.221-.282.028-.393.028-.393-.175-.23-.175-.25c0-.042.889.22 1.232.363.197.082.486.232.644.334s.3.173.315.157.028-.182.027-.37c-.002-.689-.3-1.059-1.049-1.304-.143-.047-.253-.112-.253-.149s.054-.146.119-.242a.89.89 0 0 0 .148-.685c-.025-.134-.107-.253-.319-.46-.453-.443-.442-.411-.479-1.377-.027-.697-.051-.9-.133-1.108a2.63 2.63 0 0 0-1.078-1.28c-.787-.461-1.91-.49-2.756-.07a2.78 2.78 0 0 0-1.091 1.098c-.198.407-.25.702-.25 1.424 0 .83-.008.857-.39 1.22-.179.171-.353.374-.385.451-.086.208-.025.599.128.82.106.152.118.198.068.258-.033.04-.085.073-.115.073s-.186.062-.347.139c-.497.235-.744.647-.744 1.237 0 .163.012.309.027.324s.14-.05.277-.144.381-.23.54-.303c.352-.161 1.192-.433 1.337-.433.103 0 .103.002-.019.133a.83.83 0 0 0-.261.758c.033.322.013.369-.297.72-.216.244-.346.538-.348.785-.001.15.041.26.168.446.169.245.169.248.139.645l-.03.399.251.285c.208.236.246.307.22.41a3.85 3.85 0 0 0-.058.378c-.026.234-.013.277.175.587s.199.346.151.519c-.131.471-.024.74.294.74.164 0 .227-.031.389-.193l.212-.193s.014.165.008.367c-.01.348-.004.373.123.483.181.156.288.145.505-.051l.184-.166.057.275c.076.367.292.636.511.636a.49.49 0 0 0 .244-.064zm-.839-8.181c-.111-.207.112-.481.426-.523a.45.45 0 0 1 .519.31c.063.152.063.18.001.243-.084.084-.177.042-.177-.08s-.153-.246-.298-.246c-.133 0-.262.117-.288.261-.024.13-.122.148-.183.034zm-1.006-.356c-.093-.115-.165-1.258-.148-2.353.016-1.009.025-1.103.128-1.327.145-.316.495-.667.801-.804.346-.154 1.059-.158 1.388-.007.318.145.643.462.797.778.126.258.134.315.167 1.262.026.746.018 1.153-.035 1.643-.08.74-.094.801-.192.839-.125.048-.219-.026-.368-.29-.18-.319-.419-.523-.695-.592-.654-.165-1.115.049-1.48.683-.133.232-.264.293-.364.169zm1.017-1.686c.092-.123.092-.136.016-.253-.149-.227-.513-.125-.513.143 0 .132.173.274.309.254.05-.007.135-.072.188-.143zm1.373.019c.138-.176.011-.396-.229-.396s-.368.221-.229.395a.29.29 0 0 0 .458.001zm-1.931-.83c.147-.116.415-.125.613-.022.078.041.17.063.205.049.1-.038.078-.351-.033-.462-.122-.122-.47-.13-.709-.017-.181.086-.338.342-.289.471.038.099.064.097.212-.02zm2.281-.039c0-.249-.343-.492-.693-.492-.304 0-.465.188-.396.462.033.133.149.15.29.043.132-.1.411-.087.582.026.191.127.217.122.217-.039zM8.776 20.043c-.041-.067-.166-.05-.166.022 0 .035.014.079.032.096.044.044.167-.065.134-.118zm22.681 0c-.041-.067-.166-.05-.166.022 0 .035.014.079.032.096.044.044.167-.065.134-.118zM8.146 18.204c.035-.055.03-.1-.015-.154-.085-.103-.182-.096-.243.017-.038.071-.031.112.028.171.089.089.159.078.229-.034zm24.034-.003c.038-.06.032-.1-.024-.156-.099-.099-.237-.042-.237.099 0 .174.165.21.261.057zm-21.268-1.426l-.056-.592s-.121-.119-.237-.18-.283-.172-.372-.247l-.162-.135.064-.251c.091-.354.033-.814-.154-1.234-.106-.238-.151-.414-.153-.598-.002-.197-.023-.273-.089-.314s-.105-.031-.185.067-.095.167-.075.41c.013.16.052.416.088.57.109.474-.059.574-.553.33-.511-.252-.852-.565-1.045-.957-.183-.371-.315-.546-.414-.546-.124 0-.123.11.004.51a1.12 1.12 0 0 0 .444.691c.224.202.296.295.252.322-.068.042-.573-.469-.808-.818-.225-.335-.462-.199-.277.159.1.194.095.237-.029.256-.17.025-.153.104.09.427.597.795 1.055 1.165 1.574 1.273.295.062.363.1.68.384.505.452 1.242.995 1.351.995.088 0 .091-.029.063-.523zM7.8 14.829c-.193-.191-.271-.329-.142-.252s.471.378.471.414c0 .092-.142.022-.328-.163zm21.931 2.139l.776-.65s.398-.33.458-.343.186-.035.279-.05a1.44 1.44 0 0 0 .362-.128c.403-.211 1.421-1.349 1.357-1.516-.015-.04-.072-.072-.126-.072-.124 0-.123-.051.003-.298.091-.177.093-.205.027-.271-.093-.093-.168-.038-.379.277-.279.416-.761.854-.761.692 0-.019.132-.168.294-.331.233-.235.319-.365.414-.629.178-.491.177-.485.086-.52-.143-.055-.292.095-.41.413-.077.206-.185.377-.334.526-.282.282-.858.625-1.107.659-.173.023-.199.013-.25-.098-.045-.099-.04-.188.022-.438.108-.432.103-.761-.015-.904-.076-.093-.11-.104-.181-.06s-.084.102-.072.271c.012.162-.023.307-.138.574-.182.421-.248 1.055-.143 1.372.06.183.058.189-.102.323a2.13 2.13 0 0 1-.363.233c-.232.112-.258.2-.259.878 0 .33.014.422.067.422.037 0 .26-.149.495-.33zm2.188-1.976c0-.037.343-.338.475-.417.109-.065-.014.128-.192.302-.148.145-.283.2-.283.115zm-26.74 1.709c.042-.05.037-.081-.02-.128-.092-.077-.195.004-.151.119.036.093.099.097.172.01zm29.916-.043c.019-.1-.12-.167-.194-.093s-.006.213.093.194c.046-.009.091-.054.1-.1zM7.26 11.913c0-.085-.104-.07-.134.019-.011.032.015.057.057.057s.076-.034.076-.076zm25.528.004c0-.04-.033-.072-.072-.072s-.072.033-.072.072.033.072.072.072.072-.033.072-.072zm-2.92-3.499c0-.039-.038-.078-.084-.087-.059-.011-.084.015-.084.087s.025.099.084.087c.046-.009.084-.048.084-.087zM10.3 8.37c0-.053-.031-.097-.07-.097-.085 0-.14.079-.099.145.052.085.169.052.169-.048zm13.994-2.822c.08-.097.027-.218-.096-.218-.055 0-.112.033-.128.073-.028.072.057.217.128.217.02 0 .063-.032.096-.072zm-8.068-.103c.019-.13-.126-.193-.223-.096s-.036.233.099.214c.068-.01.114-.054.123-.118z" fill="#ed9260"/><path d="M19.65 37.892c-.014-.042-.17-.063-.523-.068l-.744-.032-.573-.053c-.362-.032-.434-.056-.387-.133.02-.032-.01-.038-.084-.017l-.195.055c-.044.012-.094 0-.111-.028s-.139-.05-.272-.05-.306-.034-.386-.075-.171-.066-.203-.055-.107.002-.168-.021a1.79 1.79 0 0 0-.265-.067 3.4 3.4 0 0 1-.396-.106l-.314-.092c-.04-.007-.214-.065-.386-.129l-.386-.143a18.14 18.14 0 0 0-.507-.154c-.472-.139-.452-.131-1.617-.697l-1.612-.885c-.13-.1-.265-.181-.301-.181s-.147-.073-.246-.163-.268-.207-.374-.26-.234-.143-.285-.199-.119-.102-.151-.102-.095-.054-.138-.121-.104-.121-.135-.121c-.056 0-.404-.273-.703-.552L6.46 31.704l-.226-.277c-.046-.047-.085-.113-.085-.146s-.141-.208-.314-.389-.327-.382-.343-.446-.046-.117-.066-.117c-.038 0-.324-.421-.426-.627-.033-.066-.124-.218-.203-.338l-.172-.29a1.07 1.07 0 0 0-.074-.145 2.41 2.41 0 0 1-.102-.193c-.031-.066-.083-.153-.114-.193a6.77 6.77 0 0 1-.503-1.002c0-.035-.041-.145-.092-.243-.178-.347-.503-1.185-.667-1.723l-.137-.41a5.18 5.18 0 0 1-.144-.555c-.045-.212-.101-.425-.126-.472s-.055-.156-.067-.241c-.03-.21-.045-.282-.087-.406-.031-.091-.069-.388-.083-.642-.002-.04-.017-.105-.032-.145-.053-.135-.107-.651-.105-.997.001-.137-.023-.264-.053-.283-.038-.023-.044-.145-.021-.391s.016-.378-.023-.425-.049-.267-.03-.76l.039-1.005c.006-.173.03-.342.053-.377s.027-.158.01-.273c-.019-.125-.012-.222.018-.24s.046-.111.043-.209c-.008-.216.042-.627.108-.898l.073-.381a6.17 6.17 0 0 1 .124-.555l.189-.734c.107-.432.495-1.585.627-1.861.052-.108.094-.216.094-.241a1.12 1.12 0 0 1 .092-.238l.29-.609.198-.451c0-.02.06-.126.134-.236s.163-.271.199-.357.081-.157.102-.157.06-.065.088-.145c.084-.24.802-1.325 1.086-1.641.036-.04.146-.192.246-.338s.216-.298.26-.338.118-.132.166-.205c.205-.319 1.837-1.965 1.95-1.967.022 0 .146-.096.275-.212s.293-.241.362-.277a.8.8 0 0 0 .214-.174c.048-.06.119-.109.157-.109s.069-.021.069-.047c0-.058.626-.484.711-.484.033 0 .061-.019.061-.043 0-.067.678-.51 1.069-.699.195-.094.429-.226.52-.293s.189-.123.217-.123.151-.051.274-.113l.314-.143a1.02 1.02 0 0 0 .163-.073 2.9 2.9 0 0 1 .241-.115l.36-.156c.31-.135.613-.229.642-.199.015.015.062-.003.104-.04s.174-.093.293-.123.326-.096.458-.146c.23-.086.517-.161 1.493-.389.237-.055.483-.088.548-.072s.143.007.175-.019c.075-.062 1.127-.191 1.476-.18.19.006.262-.009.253-.053s.24-.06 1.122-.06 1.131.013 1.122.06.112.061.471.065c.265.002.537.022.603.044s.229.044.362.048c.29.009 1.169.178 1.472.282.119.041.423.122.676.179.442.1 1.438.414 1.786.563l.627.262a3.87 3.87 0 0 1 .41.195l.265.142c.426.196 1.117.559 1.288.676.111.076.22.138.241.138s.148.082.281.182l.434.3a12.43 12.43 0 0 1 1.723 1.34c.084.086.169.157.189.157.037 0 1.289 1.26 1.511 1.52.769.904 1.654 2.136 1.987 2.764l.217.378c.045.055.184.333.54 1.08l.243.507c.135.269.424 1.041.625 1.665l.449 1.544.114.521a2.79 2.79 0 0 1 .059.507c.004.165.027.326.052.358s.032.08.015.108.002.145.041.261.072.339.073.496l.005.405L37.806 20l-.072 1.954-.072.579c-.008.027-.021.113-.029.193l-.038.29-.045.314c-.035.282-.132.725-.258 1.182l-.691 2.109c-.026.045-.125.278-.22.518-.193.489-.678 1.446-.917 1.813l-.312.531a2.44 2.44 0 0 1-.294.437c-.077.081-.14.163-.14.182 0 .093-.798 1.191-.866 1.191-.021 0-.1.092-.177.205-.154.226-.147.219-1.103 1.187l-.728.683c-.029 0-.08.049-.112.109-.084.156-.395.351-.441.277-.023-.038-.047-.041-.066-.009s-.005.058.027.068c.097.032-.007.134-.137.134-.085 0-.115.021-.097.067.023.059-.334.368-.424.368-.017 0-.084.062-.148.138a.96.96 0 0 1-.251.205c-.074.037-.322.192-.551.345-.289.193-.442.268-.502.245s-.075-.015-.052.021c.044.071-.175.214-.27.178-.047-.018-.082.007-.099.071-.014.054-.088.122-.163.15a12.65 12.65 0 0 0-.934.439c-.221.135-.686.325-.742.303-.036-.014-.079.009-.095.051-.021.056-.064.068-.158.044s-.119-.016-.095.023c.02.032-.003.068-.053.085s-.182.071-.298.123-.239.083-.274.07-.089.007-.121.045-.108.07-.17.07-.126.024-.144.052-.073.042-.122.029-.114.007-.145.044-.117.067-.192.067-.149.022-.166.048-.092.048-.169.048-.151.019-.165.042-.108.055-.208.072l-.423.081-1.044.185c-.176.023-.34.055-.365.07-.066.041-.929.099-1.53.102-.376.002-.532.02-.547.063s-.134.06-.374.06-.36-.019-.374-.06zm8.578-2.111c.017-.027-.002-.035-.045-.019-.084.032-.099.067-.029.067.025 0 .059-.021.075-.048zm-10.228-.245c.044-.072-.007-.111-.099-.075-.043.016-.064.052-.047.078.039.063.107.062.147-.003zm3.92-.036c.011-.032-.015-.057-.057-.057s-.076.034-.076.076c0 .085.104.07.134-.019zm8.987-1.409c0-.027-.02-.048-.045-.048s-.059.022-.075.048.004.048.045.048.075-.022.075-.048zm-6.732-.217c0-.052-.035-.102-.078-.11-.084-.016-.158.112-.11.19s.189.021.189-.079zm-7.699-.046c.066-.08.029-.171-.071-.171-.087 0-.136.083-.102.171s.099.089.173 0zm3.736-.813c.093-.124.095-.145.027-.265-.054-.097-.117-.134-.244-.145-.275-.023-.404.224-.231.444.131.166.309.153.448-.033zm5.764-.863c-.018-.12-.082-.154-.179-.092s-.029.197.093.197c.077 0 .098-.026.086-.105zm-11.152-.046c.074-.074.023-.187-.084-.187-.094 0-.143.083-.107.181.028.075.12.078.191.006zm2.907-.305a.2.2 0 0 0-.079-.289c-.074-.029-.257.092-.257.17 0 .06.146.189.215.189.035 0 .089-.032.121-.07zm5.446-.084c.022-.19-.145-.271-.28-.136s-.054.302.136.28c.1-.012.133-.045.144-.144zm-12.16-.224c.011-.078-.009-.105-.082-.105-.127 0-.175.082-.1.173s.162.063.181-.068zm18.25.038c0-.117-.138-.184-.193-.094s-.003.192.102.192c.06 0 .091-.034.091-.098zm-9.145-1.06c0-.094-.028-.124-.127-.135-.136-.016-.206.079-.155.21.018.048.075.07.155.06.099-.011.127-.041.127-.135zm6.827-.698c.073-.088.026-.171-.098-.171-.059 0-.094.033-.094.088 0 .158.095.199.191.083zm-13.478-.054c.016-.042.004-.1-.026-.131-.068-.068-.229.071-.178.153s.17.064.204-.023zm18.152-.468c.019-.1-.12-.167-.194-.093s-.006.213.093.194c.046-.009.091-.054.1-.1zm-22.515.001c.036-.098-.013-.181-.107-.181-.107 0-.158.113-.084.187s.164.069.191-.006zm11.011-.211c.03-.078-.045-.211-.119-.211s-.186.149-.159.219c.037.096.24.09.278-.008zm-8.802-.838c.108-.108.121-.202.047-.341-.057-.107-.329-.13-.423-.035s-.069.315.049.398c.142.099.211.095.327-.021zm17.855 0c.116-.116.124-.255.021-.358-.09-.09-.315-.1-.397-.018-.14.14-.005.473.191.473.049 0 .132-.043.186-.097zm-11.514-1.133c.116-.161.26-.296.375-.35l.187-.088-.202-.156c-.116-.089-.259-.156-.336-.156s-.151-.029-.172-.065c-.032-.054-.081-.052-.294.011-.228.068-.254.089-.241.198.01.086.048.126.128.138.063.009.125.056.137.105s.054.101.091.115c.102.039.083.259-.027.318-.12.064-.076.194.064.193.069-.001.165-.087.291-.263zm5.114.202c.08-.059.079-.067-.015-.152-.116-.105-.135-.317-.029-.317.039 0 .094-.043.122-.097s.081-.097.117-.097.076-.042.09-.094c.021-.081-.018-.103-.296-.165-.681-.15-.647-.148-.613-.04.04.125-.034.169-.215.129-.156-.034-.195-.117-.059-.125.055-.003.042-.017-.036-.04-.066-.02-.116-.059-.11-.087s-.033-.04-.092-.024c-.069.018-.091.009-.068-.029s.008-.045-.041-.026c-.042.016-.108.002-.148-.032-.108-.09-.136-.026-.055.13.099.192.201.272.575.453.26.126.355.204.474.388.131.205.196.268.289.281.015.002.065-.024.112-.058zm-5.896-.18c.045-.079.063-.144.039-.144-.047 0-.194.191-.194.252 0 .082.077.029.155-.108zm1.824-.906c0-.046-.034-.028-.097.051a.52.52 0 0 0-.097.159c0 .02.043-.003.097-.051s.097-.119.097-.159zm-.095-.051c.001-.044.033-.121.072-.173s.071-.134.071-.184.053-.184.117-.3.106-.221.093-.234-.001-.038.028-.056.051-.004.051.029c0 .048.012.049.06.001.042-.042.044-.07.007-.094-.029-.019-.063-.066-.075-.105s-.065.046-.116.189-.186.363-.299.489c-.127.142-.186.242-.154.262s.039.091.022.172c-.025.115-.017.135.045.111a.13.13 0 0 0 .078-.109zm7.758-.009c1.015-.109 2.616-.477 3.137-.721a2.38 2.38 0 0 0 .976-.941c.174-.36.167-.868-.016-1.241-.277-.564-.87-.924-1.807-1.098l-2.57-.58c-.263-.077-.296-.065-.604.227-.159.151-.311.278-.338.283s-.32.171-.651.37l-.858.49-.41.228-.156.099.935-.032c.974-.034 1.006-.039 1.937-.343.524-.171.59-.181 1.182-.182.797-.001 1.013.065 1.013.313v.164l-.338.028-.294.036c.024.005-.007.052-.068.105-.132.115-.454.21-.61.18-.072-.014-.1-.002-.08.032.017.029-.015.014-.07-.035s-.195-.099-.31-.111l-.209-.023.338.163c.383.185.473.271.45.43s-.262.166-.74.022c-.267-.081-.405-.102-.446-.068-.058.047-.082.015-.062-.084.005-.027-.006-.033-.025-.014s-.08.003-.135-.036a.41.41 0 0 0-.193-.071c-.08 0-.083.01-.025.08s.056.075-.036.026c-.068-.036-.154-.04-.253-.011-.092.026-.151.026-.151-.002s-.038-.048-.084-.051-.008-.022.084-.042c.119-.025.04-.035-.265-.035-.323 0-.385.009-.241.035s.16.037.072.045c-.066.006-.093.022-.06.035.102.041.014.113-.139.113-.094 0-.133.019-.112.054.018.03.007.07-.026.09-.079.049.095.169.698.479.653.336 1.401.572 2.016.636.715.074.78.095.798.251.021.18-.124.228-.689.228-1.086 0-2.254-.388-2.985-.991-.31-.256-.413-.423-.353-.578.016-.043.089-.072.177-.072.082 0 .137-.02.121-.045s.01-.068.057-.095.064-.051.037-.052-.016-.025.024-.053c.11-.077-1.862-.006-2.05.074-.376.16-.504.565-.391 1.233.074.438.154.517.637.634 1.657.401 3.061.544 4.157.426zm-.433-2.154c.035-.014.076-.012.092.004s-.012.027-.063.025c-.056-.002-.068-.014-.029-.029zm-10.439 2.103c.847-.103 2.213-.525 2.564-.793.276-.211.538-.911.456-1.221-.056-.211-.235-.257-1.255-.327-2.337-.159-2.295-.161-3.199.179-.606.228-.826.238-.849.037-.017-.147.117-.26.56-.475l.272-.132-.191-.067c-.176-.062-.807-.073-1.663-.03-.211.01-.218.006-.232-.14-.019-.194.142-.328.477-.4.502-.108 1.042-.035 1.813.244.381.138.501.158 1.115.183.429.017.694.01.703-.019s-.073-.093-.181-.149a18.72 18.72 0 0 1-1.982-1.224l-.193-.144-.483.119-1.448.313c-1.109.223-1.498.379-1.87.752-.342.342-.446.589-.446 1.056 0 .325.021.43.135.661.154.314.557.708.903.884.424.215 1.847.562 2.847.695.459.061 1.647.061 2.147.001zm-3.402-.333c-.04-.026-.127-.05-.193-.053-.084-.004-.064-.017.067-.042.151-.029.205-.019.277.054.084.084.084.09.006.089-.046 0-.117-.022-.157-.048zm.376-.197c-.125-.02-.25-.05-.277-.067-.077-.047-.062-.349.018-.38a5.28 5.28 0 0 1 .555-.08c.851-.094 1.769-.404 2.62-.885.396-.224.537-.222.56.01.013.14-.015.191-.21.372-.669.623-2.396 1.168-3.266 1.03zm5.308-1.695c.045-.045.071-.045.116 0s.032.058-.058.058-.103-.013-.058-.058zM5.101 25.955c.046-.046-.017-.164-.087-.164-.081 0-.134.081-.094.145.033.053.137.064.182.019zm3.267-.041c.128-.154-.06-.392-.227-.286s-.108.357.084.357c.047 0 .111-.032.143-.07zm23.597 0c.032-.038.051-.12.042-.181-.029-.204-.378-.154-.378.054 0 .178.223.262.336.127zm3.203.038c.017-.017.007-.061-.022-.097-.041-.049-.071-.052-.12-.011-.036.03-.054.074-.039.097.031.05.136.057.181.011zm-28.391-.081c0-.035-.014-.079-.032-.096-.044-.044-.167.065-.134.118.041.067.166.05.166-.022zm26.686-.005c0-.038-.017-.08-.038-.093-.062-.038-.17.05-.134.109.048.077.172.066.172-.016zm-14.147-1.233c.018 0 .035-.056.039-.123.006-.1-.012-.121-.097-.109-.074.011-.108.055-.12.154-.013.113-.001.134.064.109a.47.47 0 0 1 .112-.031zm1.48-.145c.016-.027.008-.048-.018-.048s-.062.022-.078.048-.008.048.018.048.062-.022.078-.048zm-13.311-.172c.04-.105-.062-.203-.135-.13-.062.062-.024.206.055.206.028 0 .064-.034.08-.076zm25.198-.061c.012-.079-.009-.105-.084-.105-.065 0-.1.031-.1.088 0 .183.158.197.184.016zm-7.484-.568c-.016-.016-.058-.018-.092-.004s-.027.027.029.029c.051.002.079-.009.063-.025zm-4.837-.405c-.053-.023-.068-.043-.033-.045s.048-.027.031-.056-.09-.042-.16-.028c-.208.041-1.16-.058-1.567-.163l-.507-.116c-.296-.042-.449-.093-.504-.168-.032-.044-.141-.131-.242-.192-.338-.206-.413-.487-.129-.487.074 0 .329.063.567.141.853.279 1.367.365 2.159.363.798-.002 1.192-.054 1.837-.241.457-.132 1.036-.386 1.091-.477.019-.032.114-.047.228-.036.329.031.331.29.004.517-.105.073-.192.162-.192.197s-.045.088-.101.118-.09.064-.077.077c.026.026.57-.239 1.047-.511l.88-.489.567-.339c0-.016-.168-.077-.373-.136l-.495-.151c-.249-.091-.593-.065-.893.067-.159.07-.285.147-.279.171s-.028.034-.076.022-.378.089-.734.225c-.859.329-1.298.43-2.023.466-1.149.057-1.637-.046-3.271-.689l-.893-.32c-.059-.006-.118-.025-.131-.042s-.415.086-.893.229l-.939.26c-.13 0 .013.087.868.526 1.548.795 2.457 1.111 3.81 1.324.25.039 1.519.025 1.424-.016zm-1.898-.139c-.054-.034-.054-.045 0-.065.082-.03.185.005.185.063s-.099.056-.185.002zm16.324.037c-.041-.067-.166-.05-.166.022 0 .035.014.079.032.096.044.044.167-.065.134-.118zm-29.409.03c0-.04-.031-.072-.07-.072-.081 0-.135.069-.09.114.058.058.16.031.16-.042zm15.455.041c-.033-.013-.098-.014-.145-.002s-.02.023.059.024.118-.009.085-.022zM7.28 22.769a.17.17 0 0 0-.14-.211.17.17 0 0 0-.14.211c.017.043.08.079.14.079s.124-.035.14-.079zm25.782.002c.016-.042-.006-.112-.05-.155-.073-.073-.085-.073-.158 0-.099.099-.053.231.079.231.055 0 .113-.034.129-.076zm-12.145-1.447c.38-.072.929-.261 2.027-.697.811-.322.82-.328.82-.494 0-.089-.075-.257-.193-.434-.163-.245-.193-.327-.192-.537a1.26 1.26 0 0 1 .1-.465c.149-.326.161-.63.048-1.273-.131-.744-.132-.975-.004-1.043.136-.073.268.009.386.24.053.104.134.211.181.238s.067.05.046.051c-.047.002.115.222.578.786.898 1.095 1.632 1.406 2.741 1.162.352-.077.375-.077.737.022a5.44 5.44 0 0 0 .646.134c.254.03.275.025.307-.078.019-.06.019-.439.001-.841l-.034-.731.134-.061c.177-.08.836-.597 1.267-.992.189-.173.392-.325.453-.337l.279-.05a1.44 1.44 0 0 0 .362-.128c.403-.211 1.421-1.349 1.357-1.516-.015-.04-.072-.072-.126-.072-.124 0-.123-.051.003-.298.091-.177.093-.205.027-.271-.093-.093-.168-.038-.379.277-.279.416-.761.854-.761.692 0-.019.132-.168.294-.331.233-.235.319-.365.414-.629.178-.491.177-.485.086-.52-.143-.055-.292.095-.41.413-.077.206-.185.377-.334.526-.282.282-.858.625-1.107.659-.173.023-.199.013-.25-.098-.045-.099-.04-.188.022-.438.108-.432.103-.761-.015-.904-.076-.093-.11-.104-.181-.06s-.084.102-.072.271c.012.164-.023.305-.141.574-.145.329-.157.394-.155.863l.02.624c.015.097-.028.151-.243.302-.144.101-.299.184-.344.184s-.165.076-.267.169c-.212.194-.485.243-.432.076s-.062-.155-.435.042c-.202.107-.411.195-.463.195s-.082.022-.065.048.007.048-.021.048-.051-.024-.051-.054c0-.111-.135.059-.24.302-.069.16-.118.407-.142.713-.02.258-.052.494-.072.526s-.1.057-.178.057c-.178 0-.235-.127-.243-.546-.003-.164-.016-.261-.028-.214-.018.067-.041.074-.115.034-.085-.046-.093-.032-.093.16 0 .259-.086.388-.243.365-.164-.023-.238-.204-.239-.583-.001-.566.202-.932.678-1.221l.293-.178-.112-.076c-.061-.042-.123-.088-.136-.103s-.179-.151-.369-.302c-.323-.258-1.222-1.198-1.225-1.28s-.729-.785-.81-.785c-.026 0-.061-.036-.078-.079-.025-.066-.018-.069.043-.018.142.118.218-.023.217-.403-.002-.692-.299-1.061-1.049-1.306-.143-.047-.253-.112-.253-.149s.054-.146.119-.242a.89.89 0 0 0 .148-.685c-.025-.134-.107-.253-.319-.46-.453-.443-.442-.411-.479-1.377-.027-.697-.051-.9-.133-1.108a2.63 2.63 0 0 0-1.078-1.28c-.787-.461-1.91-.49-2.756-.07a2.78 2.78 0 0 0-1.091 1.098c-.198.407-.25.702-.25 1.424 0 .83-.008.857-.39 1.22-.179.171-.353.374-.385.451-.086.208-.025.599.128.82.106.152.118.198.068.258-.033.04-.085.073-.115.073s-.186.062-.347.139c-.528.25-.768.683-.737 1.33l.017.354-.241.262-.646.755c-.434.528-1.182 1.263-1.447 1.422l-.163.097.235.117c.267.133.571.405.675.602.107.204.168.607.133.875-.063.474-.404.599-.475.175-.018-.107-.053-.181-.078-.166s-.032.048-.017.073c.025.041-.041.065-.135.051-.02-.003-.036.055-.036.128 0 .202-.129.357-.282.339-.124-.014-.129-.028-.161-.409-.041-.491-.161-.929-.297-1.086-.061-.071-.179-.132-.286-.149-.1-.016-.349-.123-.554-.237l-.518-.265c-.195-.076-.414-.079-.399-.007.027.128-.159.08-.451-.116s-.308-.216-.293-.376c.009-.093.017-.355.018-.582.002-.366-.016-.454-.159-.772-.116-.259-.162-.432-.163-.62-.002-.197-.023-.273-.089-.314s-.105-.031-.185.067-.095.167-.075.41c.013.16.052.416.088.57.109.474-.059.574-.553.33-.511-.252-.852-.565-1.045-.957-.183-.371-.315-.546-.414-.546-.124 0-.123.11.004.51a1.12 1.12 0 0 0 .444.691c.224.202.296.295.252.322-.068.042-.573-.469-.808-.818-.225-.335-.462-.199-.277.159.1.194.095.237-.029.256-.17.025-.153.104.09.427.597.795 1.055 1.165 1.574 1.273.295.062.363.1.676.381.464.416 1.177.95 1.345 1.009l.135.047.008.49-.005.562c-.023.128-.008.589.019.617.051.051.348.013.849-.108s.51-.122.892-.044c.898.183 1.484-.027 2.253-.805.53-.536.983-1.088 1.179-1.438.095-.169.187-.261.319-.319.179-.079.421-.065.288.017-.033.02-.08.155-.105.299-.241 1.394-.247 1.544-.074 2.004.181.481.164.664-.096 1.036-.217.311-.272.522-.157.61.033.026.549.243 1.146.483.93.374 1.299.495 1.858.609.25.051 1.208.024 1.569-.044zm-.377-1.252c.001-.08.012-.106.024-.059s.011.112-.002.145-.023-.006-.022-.085zm.109-.047c-.095-.227-.092-.231.087-.122a.71.71 0 0 0 .306.096c.172 0 .217.031.181.126s-.112.086-.112-.01c0-.072-.009-.072-.119 0-.179.118-.265.095-.342-.089zm.907-.058c-.038-.015-.06-.122-.06-.289s.018-.253.048-.234.048.006.048-.022.049-.042.109-.029a5.26 5.26 0 0 0 .349.052l.252.041c.037.037-.149.223-.223.223-.048 0-.142.043-.209.096-.103.081-.126.085-.15.024-.015-.04-.054-.072-.087-.072-.046 0-.047.013-.002.058.115.115.068.209-.075.151zm-2.582-.097c.033-.013.087-.013.121 0s.006.024-.06.024-.093-.011-.06-.024zm4.26-.326c-.06-.159-.061-.172-.007-.172.049 0 .119.24.081.278-.014.014-.047-.034-.075-.105zm-4.73-.092c0-.066-.025-.129-.056-.139s-.002-.072.075-.149l.131-.131-.015.25c-.015.255-.135.405-.135.169zm-.362-.077l-.193-.031.205-.023c.146-.017.205-.006.205.038 0 .034-.005.059-.012.055a2.54 2.54 0 0 0-.205-.038zm4.209-.743c-.06-.153-.038-.268.062-.322.073-.039.097-.037.097.01s.015.041.048-.01c.053-.082.061-.027.018.133-.016.06-.058.109-.092.109s-.071.038-.08.084c-.016.079-.019.078-.052-.004zm.158-1.525c0-.052.019-.105.041-.119s.031.028.019.094c-.027.142-.06.156-.06.026zm-5.139-.16c-.071-.222-.07-.231.028-.179.052.028.092.101.092.168 0 .149-.074.155-.12.01zm10.954-.519c.133-.057.18-.057.145 0-.016.027-.077.047-.136.045-.102-.003-.102-.005-.009-.045zm-11.461-.434c0-.027.023-.048.051-.048s.038.022.021.048-.039.048-.051.048-.021-.022-.021-.048zM7.8 14.829c-.193-.191-.271-.329-.142-.252s.471.378.471.414c0 .092-.142.022-.328-.163zm24.119.163c0-.037.343-.338.475-.417.109-.065-.014.128-.192.302-.148.145-.283.2-.283.115zm-15.804-1.587c-.053-.012-.129-.034-.169-.05s-.094-.024-.121-.018-.02-.017.014-.052c.051-.052.07-.051.108.009.041.065.068.034.052-.062-.003-.02.048-.062.115-.092s.121-.073.121-.094.036-.025.08-.008c.054.021.069.012.046-.025s-.008-.046.047-.024c.049.019.104.001.137-.044.071-.097.588-.315.846-.356l.2-.032-.101.17c-.065.11-.103.265-.108.438-.004.147-.025.257-.046.243s-.039-.055-.039-.093-.024-.07-.053-.07-.042-.046-.023-.121c.037-.147-.016-.153-.169-.02a.26.26 0 0 1-.261.07c-.343-.072-.518-.082-.569-.031-.039.039-.038.054.004.054.032 0 .058.054.058.121s-.016.118-.036.115l-.133-.027zm3.405-1.264c-.111-.207.112-.481.426-.523a.45.45 0 0 1 .519.31c.063.152.063.18.001.243-.084.084-.177.042-.177-.08s-.153-.246-.298-.246c-.133 0-.262.117-.288.261-.024.13-.122.148-.183.034zm-1.006-.356c-.093-.115-.165-1.258-.148-2.353.016-1.009.025-1.103.128-1.327.145-.316.495-.667.801-.804.346-.154 1.059-.158 1.388-.007.318.145.643.462.797.778.126.258.134.315.167 1.262.026.746.018 1.153-.035 1.643-.08.74-.094.801-.192.839-.125.048-.219-.026-.368-.29-.18-.319-.419-.523-.695-.592-.654-.165-1.115.049-1.48.683-.133.232-.264.293-.364.169zm1.017-1.686c.092-.123.092-.136.016-.253-.149-.227-.513-.125-.513.143 0 .132.173.274.309.254.05-.007.135-.072.188-.143zm1.373.019c.138-.176.011-.396-.229-.396s-.368.221-.229.395a.29.29 0 0 0 .458.001zm-1.931-.83c.147-.116.415-.125.613-.022.078.041.17.063.205.049.1-.038.078-.351-.033-.462-.122-.122-.47-.13-.709-.017-.181.086-.338.342-.289.471.038.099.064.097.212-.02zm2.281-.039c0-.249-.343-.492-.693-.492-.304 0-.465.188-.396.462.033.133.149.15.29.043.132-.1.411-.087.582.026.191.127.217.122.217-.039zM8.776 20.043c-.041-.067-.166-.05-.166.022 0 .035.014.079.032.096.044.044.167-.065.134-.118zm22.681 0c-.041-.067-.166-.05-.166.022 0 .035.014.079.032.096.044.044.167-.065.134-.118zm6.092-1.84c-.013-.033-.024-.006-.024.06s.011.093.024.06.013-.087 0-.121zm-29.403.001c.035-.055.03-.1-.015-.154-.085-.103-.182-.096-.243.017-.038.071-.031.112.028.171.089.089.159.078.229-.034zm24.034-.003c.038-.06.032-.1-.024-.156-.099-.099-.237-.042-.237.099 0 .174.165.21.261.057zm5.466-.333c-.015-.038-.027-.027-.029.029-.002.051.009.079.025.063s.018-.058.004-.092zM5.179 16.701c.042-.05.037-.081-.02-.128-.092-.077-.195.004-.151.119.036.093.099.097.172.01zm29.916-.043c.019-.1-.12-.167-.194-.093s-.006.213.093.194c.046-.009.091-.054.1-.1zM7.26 11.913c0-.085-.104-.07-.134.019-.011.032.015.057.057.057s.076-.034.076-.076zm25.528.004c0-.04-.033-.072-.072-.072s-.072.033-.072.072.033.072.072.072.072-.033.072-.072zm-2.92-3.499c0-.039-.038-.078-.084-.087-.059-.011-.084.015-.084.087s.025.099.084.087c.046-.009.084-.048.084-.087zM10.3 8.37c0-.053-.031-.097-.07-.097-.085 0-.14.079-.099.145.052.085.169.052.169-.048zm13.994-2.822c.08-.097.027-.218-.096-.218-.055 0-.112.033-.128.073-.028.072.057.217.128.217.02 0 .063-.032.096-.072zm-8.068-.103c.019-.13-.126-.193-.223-.096s-.036.233.099.214c.068-.01.114-.054.123-.118zm4.003-3.335a7.62 7.62 0 0 0-.651 0c-.179.009-.033.017.326.017s.505-.008.326-.017z" fill="#eb905d"/><path d="M19.845 37.916c.114-.01.287-.01.386 0s.006.019-.206.019-.293-.009-.18-.019zm-1.34-.404a17.54 17.54 0 0 1-13.37-8.179 17.47 17.47 0 0 1-2.58-7.64c-.09-.939-.09-2.569 0-3.479A17.51 17.51 0 0 1 6.755 8.47C9.67 5.098 13.51 3.055 17.974 2.499c.799-.099 2.899-.114 3.716-.026 3.554.382 6.733 1.72 9.443 3.974 4.348 3.617 6.748 9.095 6.389 14.583-.173 2.648-.703 4.624-1.852 6.91-2.253 4.481-6.344 7.779-11.254 9.073a19.02 19.02 0 0 1-5.911.499zm-.505-1.977c.044-.072-.007-.111-.099-.075-.043.016-.064.052-.047.078.039.063.107.062.147-.003zm3.92-.036c.011-.032-.015-.057-.057-.057s-.076.034-.076.076c0 .085.104.07.134-.019zm2.255-1.626c0-.052-.035-.102-.078-.11-.084-.016-.158.112-.11.19s.189.021.189-.079zm-7.699-.046c.066-.08.029-.171-.071-.171-.087 0-.136.083-.102.171s.099.089.173 0zm3.736-.813c.093-.124.095-.145.027-.265-.054-.097-.117-.134-.244-.145-.275-.023-.404.224-.231.444.131.166.309.153.448-.033zm5.764-.863c-.018-.12-.082-.154-.179-.092s-.029.197.093.197c.077 0 .098-.026.086-.105zm-11.152-.046c.074-.074.023-.187-.084-.187-.094 0-.143.083-.107.181.028.075.12.078.191.006zm2.907-.305a.2.2 0 0 0-.079-.289c-.074-.029-.257.092-.257.17 0 .06.146.189.215.189.035 0 .089-.032.121-.07zm5.446-.084c.022-.19-.145-.271-.28-.136s-.054.302.136.28c.1-.012.133-.045.144-.144zm-12.16-.224c.011-.078-.009-.105-.082-.105-.127 0-.175.082-.1.173s.162.063.181-.068zm18.25.038c0-.117-.138-.184-.193-.094s-.003.192.102.192c.06 0 .091-.034.091-.098zm-9.145-1.06c0-.094-.028-.124-.127-.135-.136-.016-.206.079-.155.21.018.048.075.07.155.06.099-.011.127-.041.127-.135zm6.827-.698c.073-.088.026-.171-.098-.171-.059 0-.094.033-.094.088 0 .158.095.199.191.083zm-13.478-.054c.016-.042.004-.1-.026-.131-.068-.068-.229.071-.178.153s.17.064.204-.023zm18.152-.468c.019-.1-.12-.167-.194-.093s-.006.213.093.194c.046-.009.091-.054.1-.1zm-22.515.001c.036-.098-.013-.181-.107-.181-.107 0-.158.113-.084.187s.164.069.191-.006zm11.011-.211c.03-.078-.045-.211-.119-.211s-.186.149-.159.219c.037.096.24.09.278-.008zm-8.802-.838c.108-.108.121-.202.047-.341-.057-.107-.329-.13-.423-.035s-.069.315.049.398c.142.099.211.095.327-.021zm17.855 0c.116-.116.124-.255.021-.358-.09-.09-.315-.1-.397-.018-.14.14-.005.473.191.473.049 0 .132-.043.186-.097zm-11.468-1.097a1.13 1.13 0 0 1 .487-.394c.347-.164.546-.372.757-.791.083-.165.256-.464.385-.666.293-.457.327-.603.185-.783-.081-.103-.14-.131-.251-.12-.138.014-.154.04-.325.528-.29.826-.4.932-1.189 1.146-.289.079-.634.19-.767.246-.203.087-.228.111-.157.151a.18.18 0 0 1 .084.141c0 .069.033.094.125.094.085 0 .133.031.15.097.014.053.045.097.069.097.1 0 .095.156-.008.266-.093.099-.1.129-.046.193.116.14.297.066.499-.206zm5.155.165c.035-.055-.027-.201-.105-.25-.085-.052-.051-.169.049-.169.056 0 .097-.032.097-.077s.042-.088.092-.101c.078-.02.185-.237.139-.282-.008-.008-.318-.083-.69-.168-.789-.179-1.017-.287-1.167-.555-.134-.237-.256-.756-.256-1.085 0-.174-.021-.253-.073-.273-.115-.044-.299.108-.362.299-.052.159-.045.199.085.448l.418.815c.292.573.35.634.817.861a1.02 1.02 0 0 1 .423.342c.078.113.179.227.225.253.091.053.257.02.309-.061zm-5.947-.159c.115-.196.106-.235-.045-.187-.159.051-.245.362-.099.362.022 0 .087-.079.144-.175zm6.404.1c.033-.087-.158-.311-.265-.311-.062 0-.062.011.003.084.041.046.089.133.107.193.038.126.113.142.155.034zm.306-.233c0-.076-.134-.202-.173-.162a.29.29 0 0 0 .137.229c.02 0 .037-.03.037-.066zm-7.024-.217c-.038-.038-.167.103-.166.181.001.059.025.048.093-.041.051-.066.083-.129.072-.14zm-.263-.175c.034-.04.039-.072.012-.072s-.075.033-.108.072-.039.072-.012.072.075-.033.108-.072zm10.737-.505c.703-.121 1.714-.361 2.167-.515.603-.205 1.006-.536 1.268-1.041.113-.218.132-.315.134-.665s-.016-.448-.133-.685c-.162-.329-.512-.659-.889-.838-.167-.079-.631-.201-1.211-.319-.517-.105-1.31-.283-1.76-.396l-.819-.205-.135.1a15.15 15.15 0 0 1-2.337 1.475 6.4 6.4 0 0 0-.527.293c-.044.041.157.036 1.613-.048.63-.036.758-.059 1.28-.234.942-.314 1.643-.376 2.17-.19.153.054.193.092.193.184v.116l-.651-.017c-.615-.016-1.079.031-1.436.143-.156.049-.216.139-.093.139.11 0 .938.422.961.49.039.111-.017.185-.14.185-.065 0-.383-.09-.707-.2-.735-.25-.963-.266-2.639-.191-1.154.052-1.3.068-1.494.164-.316.156-.412.351-.408.83.004.454.082.766.23.913.108.108.936.31 2.011.491 1.111.187 2.345.194 3.354.021zm-1.006-.561c-.767-.139-1.493-.449-2.021-.863-.31-.244-.448-.423-.406-.531.046-.119.179-.084.562.148.491.297.983.527 1.486.696.446.149 1.155.29 1.461.29.364 0 .561.168.338.288-.131.07-.968.054-1.419-.027zm-10.61.605c.806-.088 1.682-.331 2.366-.656.423-.201.589-.422.708-.944.138-.607-.045-.808-.736-.81a19.99 19.99 0 0 1-1.145-.072c-1.536-.132-1.816-.105-2.77.274-.815.323-.832-.039-.019-.405.193-.087.352-.173.352-.19 0-.123-1.266-.227-1.749-.142-.351.061-.47.038-.47-.093 0-.203.453-.385.955-.384.285.001.718.101 1.337.309.442.149.548.165 1.267.193.431.017.817.043.857.058s.072.004.072-.025-.157-.132-.35-.229a17.57 17.57 0 0 1-1.964-1.156l-.441-.317-.709.169c-.39.093-1.003.226-1.361.296-1.057.206-1.356.325-1.749.692-.132.123-.297.333-.367.466-.11.21-.128.301-.128.677 0 .386.015.466.142.716.177.349.558.705.958.896.289.138 1.515.468 2.157.58a11.09 11.09 0 0 0 2.789.097zm-3.163-.696c-.06-.044-.109-.111-.109-.15 0-.104.155-.153.762-.238.712-.1 1.483-.354 2.223-.734.468-.24.611-.294.664-.251.157.13.035.306-.427.618a6.12 6.12 0 0 1-1.46.66c-.566.166-1.483.218-1.653.095zm-7.19.525c.046-.046-.017-.164-.087-.164-.081 0-.134.081-.094.145.033.053.137.064.182.019zm3.267-.041c.128-.154-.06-.392-.227-.286s-.108.357.084.357c.047 0 .111-.032.143-.07zm23.597 0c.032-.038.051-.12.042-.181-.029-.204-.378-.154-.378.054 0 .178.223.262.336.127zm3.203.038c.017-.017.007-.061-.022-.097-.041-.049-.071-.052-.12-.011-.036.03-.054.074-.039.097.031.05.136.057.181.011zm-28.391-.081c0-.035-.014-.079-.032-.096-.044-.044-.167.065-.134.118.041.067.166.05.166-.022zm26.686-.005c0-.038-.017-.08-.038-.093-.062-.038-.17.05-.134.109.048.077.172.066.172-.016zm-13.157-.789c.027-.044-.173-.638-.215-.638s-.279.618-.248.649c.041.041.436.032.463-.011zm-12.822-.762c.04-.105-.062-.203-.135-.13-.062.062-.024.206.055.206.028 0 .064-.034.08-.076zm25.198-.061c.012-.079-.009-.105-.084-.105-.065 0-.1.031-.1.088 0 .183.158.197.184.016zm-11.597-.973c.642-.11 1.256-.303 1.856-.584.315-.148 2.351-1.25 2.459-1.331.048-.036-.077-.084-.746-.287l-.709-.215-1.026.411c-.564.226-1.181.454-1.371.506-.813.225-1.976.247-2.792.052-.217-.052-.905-.293-1.531-.536l-1.137-.442-.831.251-.993.301c-.136.042-.151.06-.097.115.136.135 2.07 1.074 2.655 1.289 1.17.43 1.812.553 2.919.56.578.004.925-.02 1.344-.092zm-2.148-.288c-.633-.136-1.472-.465-1.701-.666-.046-.041-.084-.117-.084-.169 0-.124.139-.105.869.121a9.75 9.75 0 0 0 1.01.249c1.135.193 2.464.016 3.608-.481.271-.118.514-.214.541-.214s.073.044.101.097c.043.081.029.118-.083.222-.368.341-1.296.719-2.119.863-.58.101-1.618.09-2.142-.022zm15.849.186c-.041-.067-.166-.05-.166.022 0 .035.014.079.032.096.044.044.167-.065.134-.118zm-29.409.03c0-.04-.031-.072-.07-.072-.081 0-.135.069-.09.114.058.058.16.031.16-.042zm1.902-.44a.17.17 0 0 0-.14-.211.17.17 0 0 0-.14.211c.017.043.08.079.14.079s.124-.035.14-.079zm25.782.002c.016-.042-.006-.112-.05-.155-.073-.073-.085-.073-.158 0-.099.099-.053.231.079.231.055 0 .113-.034.129-.076zM21.23 21.328c.159-.045.784-.277 1.389-.516.771-.305 1.12-.466 1.17-.542.09-.137.038-.331-.171-.634s-.225-.499-.074-.936c.141-.407.155-.713.056-1.195-.096-.471-.137-.868-.102-.98.058-.184.202-.11.39.199.393.647 1.218 1.572 1.672 1.875.55.367 1.205.474 1.92.311.325-.074.345-.073.825.048.271.068.562.124.648.124.267 0 .282-.058.245-.94l-.033-.792.111-.058c.174-.091.86-.636 1.237-.982.189-.173.392-.325.453-.337s.186-.035.279-.05a1.44 1.44 0 0 0 .362-.128c.403-.211 1.421-1.349 1.357-1.516-.015-.04-.072-.072-.126-.072-.124 0-.123-.051.003-.298.091-.177.093-.205.027-.271-.093-.093-.168-.038-.379.277-.279.416-.761.854-.761.692 0-.019.132-.168.294-.331.233-.235.319-.365.414-.629.178-.491.177-.485.086-.52-.143-.055-.292.095-.41.413-.077.206-.185.377-.334.526-.282.282-.858.625-1.107.659-.173.023-.199.013-.25-.098-.045-.099-.04-.188.022-.438.108-.432.103-.761-.015-.904-.076-.093-.11-.104-.181-.06s-.084.102-.072.271c.012.162-.023.307-.138.574-.182.421-.248 1.055-.143 1.372.06.182.058.189-.093.315a2.32 2.32 0 0 1-.324.22c-.16.086-.171.086-.216.006-.087-.155-.346-.102-.894.181-.321.166-.573.265-.674.265a.35.35 0 0 0-.261.108c-.133.142-.276.647-.314 1.108-.035.419-.115.547-.255.407-.065-.065-.082-.172-.082-.527 0-.245.018-.553.041-.686l.041-.241-.125.117c-.196.184-.319.484-.319.782s-.085.461-.211.413c-.185-.071-.235-.613-.095-1.024a1.5 1.5 0 0 1 .752-.773c.126-.052.229-.105.229-.118s-.073-.071-.163-.129c-.417-.27-1.067-.874-1.503-1.396a26.08 26.08 0 0 0-.72-.831l-.241-.257.014-.379c.028-.732-.267-1.119-1.043-1.373-.143-.047-.253-.112-.253-.149s.054-.146.119-.242a.89.89 0 0 0 .148-.685c-.025-.134-.107-.253-.319-.46-.453-.443-.442-.411-.479-1.377-.027-.697-.051-.9-.133-1.108a2.63 2.63 0 0 0-1.078-1.28c-.787-.461-1.91-.49-2.756-.07a2.78 2.78 0 0 0-1.091 1.098c-.198.407-.25.702-.25 1.424 0 .83-.008.857-.39 1.22-.179.171-.353.374-.385.451-.086.208-.025.599.128.82.106.152.118.198.068.258-.033.04-.085.073-.115.073s-.186.062-.347.139c-.513.243-.762.676-.74 1.286.011.316.011.318-.206.544-.12.125-.424.477-.676.782-.499.604-1.093 1.193-1.452 1.44-.125.086-.228.174-.228.196s.101.078.225.125c.511.195.836.674.836 1.23 0 .356-.078.555-.217.555-.083 0-.1-.047-.134-.361-.042-.388-.218-.788-.387-.878-.086-.046-.091-.037-.063.112.017.089.044.379.06.644.028.438.021.494-.067.602-.153.187-.233.074-.271-.383-.034-.412-.172-.923-.297-1.1-.053-.076-.125-.109-.239-.109-.097 0-.366-.099-.666-.245-.277-.135-.595-.257-.706-.272-.178-.024-.206-.015-.23.076-.015.057-.044.103-.065.103s-.176-.092-.344-.205c-.289-.194-.305-.214-.29-.374.009-.093.017-.355.018-.582.002-.366-.016-.454-.159-.772-.116-.259-.162-.432-.163-.62-.002-.197-.023-.273-.089-.314s-.105-.031-.185.067-.095.167-.075.41c.013.16.052.416.088.57.109.474-.059.574-.553.33-.511-.252-.852-.565-1.045-.957-.183-.371-.315-.546-.414-.546-.124 0-.123.11.004.51a1.12 1.12 0 0 0 .444.691c.224.202.296.295.252.322-.068.042-.573-.469-.808-.818-.225-.335-.462-.199-.277.159.1.194.095.237-.029.256-.17.025-.153.104.09.427.597.795 1.055 1.165 1.574 1.273.295.062.363.1.676.381.432.387 1.165.943 1.321 1.002l.116.044-.015.824c-.02 1.084-.082 1.033.963.789.469-.109.512-.112.796-.044.836.197 1.55-.015 2.244-.666a10.58 10.58 0 0 0 1.218-1.458c.311-.461.434-.49.434-.1a4.25 4.25 0 0 1-.072.639c-.11.574-.095.969.052 1.354.158.417.137.594-.119.971-.14.206-.198.342-.198.462 0 .206-.041.183 1.158.667.976.394 1.393.539 1.761.611.375.073 1.731.03 2.075-.067zM7.8 14.829c-.193-.191-.271-.329-.142-.252s.471.378.471.414c0 .092-.142.022-.328-.163zm24.119.163c0-.037.343-.338.475-.417.109-.065-.014.128-.192.302-.148.145-.283.2-.283.115zM19.52 12.14c-.111-.207.112-.481.426-.523a.45.45 0 0 1 .519.31c.063.152.063.18.001.243-.084.084-.177.042-.177-.08s-.153-.246-.298-.246c-.133 0-.262.117-.288.261-.024.13-.122.148-.183.034zm-1.006-.356c-.093-.115-.165-1.258-.148-2.353.016-1.009.025-1.103.128-1.327.145-.316.495-.667.801-.804.346-.154 1.059-.158 1.388-.007.318.145.643.462.797.778.126.258.134.315.167 1.262.026.746.018 1.153-.035 1.643-.08.74-.094.801-.192.839-.125.048-.219-.026-.368-.29-.18-.319-.419-.523-.695-.592-.654-.165-1.115.049-1.48.683-.133.232-.264.293-.364.169zm1.017-1.686c.092-.123.092-.136.016-.253-.149-.227-.513-.125-.513.143 0 .132.173.274.309.254.05-.007.135-.072.188-.143zm1.373.019c.138-.176.011-.396-.229-.396s-.368.221-.229.395a.29.29 0 0 0 .458.001zm-1.931-.83c.147-.116.415-.125.613-.022.078.041.17.063.205.049.1-.038.078-.351-.033-.462-.122-.122-.47-.13-.709-.017-.181.086-.338.342-.289.471.038.099.064.097.212-.02zm2.281-.039c0-.249-.343-.492-.693-.492-.304 0-.465.188-.396.462.033.133.149.15.29.043.132-.1.411-.087.582.026.191.127.217.122.217-.039zM8.776 20.043c-.041-.067-.166-.05-.166.022 0 .035.014.079.032.096.044.044.167-.065.134-.118zm22.681 0c-.041-.067-.166-.05-.166.022 0 .035.014.079.032.096.044.044.167-.065.134-.118zM8.146 18.204c.035-.055.03-.1-.015-.154-.085-.103-.182-.096-.243.017-.038.071-.031.112.028.171.089.089.159.078.229-.034zm24.034-.003c.038-.06.032-.1-.024-.156-.099-.099-.237-.042-.237.099 0 .174.165.21.261.057zm-27.001-1.5c.042-.05.037-.081-.02-.128-.092-.077-.195.004-.151.119.036.093.099.097.172.01zm29.916-.043c.019-.1-.12-.167-.194-.093s-.006.213.093.194c.046-.009.091-.054.1-.1zM7.259 11.913c0-.085-.104-.07-.134.019-.011.032.015.057.057.057s.076-.034.076-.076zm25.528.004c0-.04-.033-.072-.072-.072s-.072.033-.072.072.033.072.072.072.072-.033.072-.072zm-2.92-3.499c0-.039-.038-.078-.084-.087-.059-.011-.084.015-.084.087s.025.099.084.087c.046-.009.084-.048.084-.087zM10.299 8.37c0-.053-.031-.097-.07-.097-.085 0-.14.079-.099.145.052.085.169.052.169-.048zm13.994-2.822c.08-.097.027-.218-.096-.218-.055 0-.112.033-.128.073-.028.072.057.217.128.217.02 0 .063-.032.096-.072zm-8.068-.103c.019-.13-.126-.193-.223-.096s-.036.233.099.214c.068-.01.114-.054.123-.118zm-9.473 26.62c-.048-.053-.063-.097-.033-.097s.077.043.106.097.043.097.033.097-.058-.043-.106-.097zm30.816-15.229c.002-.056.014-.068.029-.029s.012.076-.004.092-.027-.012-.025-.063zM6.655 8.033c.048-.053.096-.097.106-.097s-.005.043-.033.097-.076.097-.106.097-.015-.043.033-.097zm.41-.413c0-.063.569-.626.601-.595.013.013-.116.163-.288.334s-.312.288-.312.261zm1.062-1.053c0-.01.038-.048.084-.084.077-.06.078-.058.018.018s-.103.106-.103.066zm8.581-4.213c.035-.014.076-.012.092.004s-.012.027-.063.025c-.056-.002-.068-.014-.029-.029zm5.888-.097c.035-.014.076-.012.092.004s-.012.027-.063.025c-.056-.002-.068-.014-.029-.029zm-3.233-.196c.327-.008.848-.008 1.158 0s.043.015-.594.015-.891-.007-.564-.015z" fill="#a66c50"/><path d="M19.845 37.916c.114-.01.287-.01.386 0s.006.019-.206.019-.293-.009-.18-.019zm-.761-.431c-4.122-.226-7.797-1.773-10.93-4.603-1.5-1.354-2.92-3.261-3.844-5.161-.921-1.894-1.43-3.673-1.691-5.911-.094-.807-.077-3.17.028-3.957.287-2.138.948-4.261 1.867-5.998 2.146-4.054 5.722-7.115 9.938-8.507 2.604-.86 5.272-1.101 7.973-.721a17.62 17.62 0 0 1 5.587 1.794c5.035 2.665 8.553 7.631 9.311 13.141.491 3.574-.081 7.098-1.669 10.273a17.43 17.43 0 0 1-12.492 9.385 18.41 18.41 0 0 1-4.078.264zm-1.062-1.967c0-.038-.024-.084-.052-.102-.068-.042-.161.051-.119.119.047.077.172.064.172-.017zm3.909.005c0-.035-.014-.079-.032-.096-.044-.044-.167.065-.134.118.041.067.166.05.166-.022zm2.29-1.572c.047-.075-.028-.197-.12-.197-.106 0-.161.075-.124.171.03.077.201.096.244.026zm-7.704-.18c.019-.131-.109-.182-.208-.083-.059.059-.063.09-.018.145.08.096.208.061.226-.062zm3.677-.693c.196-.196.065-.483-.222-.483-.168 0-.309.137-.309.3 0 .124.174.279.314.279a.36.36 0 0 0 .217-.097zm5.788-.864c.058-.109-.049-.226-.166-.181-.088.034-.097.206-.013.24.105.042.128.034.178-.059zm-11.121-.173c0-.106-.15-.159-.229-.081s-.001.209.12.192c.071-.01.109-.049.109-.111zm2.869-.24c.128-.154-.06-.392-.227-.286s-.108.357.084.357c.047 0 .111-.032.143-.07zm5.452-.022c.071-.132-.084-.319-.227-.274-.127.04-.185.201-.106.296s.275.087.333-.022zm-12.16-.22c.078-.094.023-.171-.122-.171-.082 0-.118.027-.118.088 0 .162.135.208.24.083zm18.267-.05c0-.106-.15-.159-.229-.081s-.001.209.12.192c.071-.01.109-.049.109-.111zm-9.145-1.034c0-.133-.134-.228-.233-.165-.114.072-.13.216-.031.289.106.078.264.004.264-.123zm-6.684-.78c0-.084-.027-.117-.096-.117-.113 0-.161.162-.066.223s.162.023.162-.106zm13.49.074c.051-.062.048-.089-.018-.155-.075-.075-.086-.075-.161 0-.066.066-.07.093-.018.155.034.041.078.075.099.075s.064-.034.099-.075zm4.692-.468c.034-.098-.017-.181-.112-.181-.106 0-.161.075-.124.171.033.086.207.093.236.01zm-22.525-.108c0-.106-.15-.159-.229-.081s-.001.209.12.192c.071-.01.109-.049.109-.111zm10.997-.132c.04-.064.034-.102-.027-.163-.145-.145-.36.044-.23.201.075.09.187.074.257-.038zm-8.793-.841c.129-.117.114-.336-.03-.43s-.29-.057-.391.097c-.176.268.181.551.421.333zm17.855 0c.123-.112.113-.331-.019-.424-.147-.103-.215-.095-.353.043-.144.144-.149.237-.022.364.117.117.276.124.394.017zm-11.668-.818c.041-.016.152-.135.245-.265.13-.18.244-.272.483-.384.356-.168.501-.324.769-.826.104-.194.285-.499.402-.676.26-.393.308-.634.161-.82-.122-.155-.372-.225-.462-.129-.034.036-.121.25-.194.476-.266.82-.42.991-1.042 1.153-.222.058-.556.161-.742.229l-.603.22c-.329.119-.386.165-.386.31s.082.146.199-.002.414-.255.489-.179c.037.037-.012.079-.17.147-.233.1-.344.236-.296.363.042.109.074.096.236-.095.103-.122.198-.179.332-.2.145-.023.183-.015.166.036-.012.036-.091.083-.175.105-.191.05-.338.253-.266.368.079.126.192.094.315-.089.068-.1.162-.176.233-.186l.119-.017-.109.116c-.128.138-.135.197-.033.3.079.079.201.096.329.047zm5.344-.063l.114-.092-.109-.147c-.126-.17-.132-.199-.045-.199s.254.188.297.329c.053.174.243.126.243-.061 0-.109-.039-.169-.169-.256-.22-.148-.249-.228-.067-.185a.69.69 0 0 1 .284.2c.177.205.278.218.257.035-.012-.105-.064-.156-.244-.242-.215-.103-.311-.252-.163-.252.132 0 .414.147.464.241.06.113.193.129.193.024 0-.12-.168-.25-.367-.286-.103-.018-.274-.063-.381-.1a13.7 13.7 0 0 0-.869-.22c-.631-.144-.687-.166-.848-.335-.203-.212-.331-.607-.376-1.159-.027-.329-.04-.363-.14-.378-.074-.011-.164.039-.277.152-.211.211-.216.369-.023.715a20.09 20.09 0 0 1 .365.705c.285.576.399.706.797.907.181.091.368.223.416.294.16.235.344.404.44.404.052 0 .146-.042.209-.092zm4.273-1.209c.968-.169 2.079-.464 2.462-.653.434-.214.772-.538.958-.917.125-.256.142-.34.142-.724s-.017-.465-.136-.693c-.075-.142-.235-.355-.357-.474-.378-.368-.68-.484-1.917-.74-.612-.127-1.413-.308-1.781-.404s-.694-.159-.724-.141-.22.158-.422.312c-.513.39-1.354.904-2.086 1.277-.404.205-.604.332-.573.363.045.045 1.995-.023 2.363-.083.085-.014.411-.109.724-.211.715-.234 1.191-.314 1.619-.274.379.035.681.144.651.234-.016.046-.187.057-.716.044-.684-.016-1.139.039-1.512.183-.12.046-.131.064-.072.117.038.034.199.111.358.17.384.142.7.33.7.417 0 .107-.12.086-.724-.124-.78-.272-1.004-.299-2.015-.241l-1.416.07c-.639.024-.822.082-1.041.332-.192.218-.249.583-.166 1.066.073.429.172.591.415.682.386.144 1.77.402 2.825.526.438.051 1.882-.016 2.446-.115zm-.874-.634c-.857-.125-1.791-.531-2.296-.999-.244-.226-.301-.303-.257-.349s.112-.026.314.094c.521.31 1.427.724 1.854.847.358.103 1.289.263 1.551.267.104.002.065.133-.048.164-.15.04-.773.027-1.118-.023zm-10.138.594c.515-.112 1.336-.381 1.727-.566.461-.219.723-.627.788-1.229.03-.278-.051-.433-.286-.548-.215-.105-1.551-.197-2.88-.199l-.796-.001-.531.211c-.636.253-.796.29-.796.183 0-.083.314-.284.698-.45.134-.057.243-.132.243-.167s-.098-.092-.217-.129a5.94 5.94 0 0 0-1.641-.068c-.421.078-.503-.099-.121-.259.428-.178.933-.132 1.882.172.52.166.653.189 1.303.222.966.049 1.106.05 1.134.003.013-.022-.323-.225-.748-.452-.613-.327-1.573-.924-2.078-1.292-.042-.031-.277.005-.706.107-.353.084-1.014.228-1.468.321-.952.195-1.247.299-1.602.566-.506.381-.712.82-.675 1.435.04.661.437 1.208 1.112 1.528.546.259 1.913.588 2.98.716.093.011.636.013 1.206.005.804-.012 1.135-.037 1.472-.11zm-3.779-.71c-.166-.121-.063-.198.316-.237.79-.08 1.614-.322 2.349-.689.237-.118.475-.246.53-.284.126-.088.318-.09.318-.002 0 .096-.323.374-.671.578-.711.417-1.484.654-2.248.691-.401.019-.501.01-.593-.058zm-7.221.463c-.049-.079-.171-.064-.204.024-.041.107.087.178.171.095.036-.036.051-.09.033-.119zm30.075.05c-.008-.043-.053-.085-.099-.094-.103-.02-.171.13-.083.184s.2.001.182-.09zm-26.802-.019c.078-.124-.021-.253-.193-.253-.109 0-.143.024-.155.112a.45.45 0 0 0 .012.184c.037.096.268.067.337-.043zm23.625.016c.1-.187-.102-.392-.288-.293-.107.057-.128.238-.039.328s.271.069.326-.035zm1.433.017c.04-.105-.062-.203-.135-.13-.062.062-.024.206.055.206.028 0 .064-.034.08-.076zm-26.67-.073c0-.069-.026-.095-.084-.084-.126.024-.14.184-.016.184.069 0 .1-.031.1-.1zm13.587-.734c.04-.103-.192-.734-.27-.734-.07 0-.325.547-.333.712-.003.072.041.084.287.084.193 0 .299-.021.315-.062zm-12.877-.764c.073-.073.023-.187-.083-.187s-.157.114-.083.187c.03.03.067.054.083.054s.053-.024.083-.054zm25.206-.021c.051-.062.048-.089-.018-.155-.075-.075-.086-.075-.161 0-.066.066-.07.093-.018.155.034.041.078.075.099.075s.064-.034.099-.075zm-11.632-.971c.899-.144 1.598-.412 2.841-1.088l1.2-.651c.219-.118.398-.242.398-.275 0-.05-1.42-.517-1.557-.512-.021.001-.503.187-1.073.413s-1.204.455-1.41.509a6.24 6.24 0 0 1-2.86-.007c-.199-.055-.835-.286-1.413-.512-.724-.284-1.092-.405-1.182-.389-.254.045-1.989.587-1.989.621 0 .067.271.227 1.118.658.867.441 1.818.84 2.429 1.017a7.97 7.97 0 0 0 3.499.216zm-1.97-.375c-.86-.163-2.025-.681-1.873-.832.017-.017.287.049.599.146.846.264 1.459.369 2.148.369a6.76 6.76 0 0 0 2.756-.58c.236-.104.448-.177.471-.163.091.056.031.167-.164.301-.462.317-1.064.559-1.773.713a8.08 8.08 0 0 1-2.163.047zm-13.719.293c.041-.05.039-.079-.008-.118-.083-.069-.202.008-.164.107s.099.099.172.011zm29.426-.01c.016-.042.004-.1-.026-.131-.068-.068-.229.071-.178.153s.17.064.204-.023zm-27.541-.429c.097-.117.015-.276-.135-.258-.143.017-.195.147-.103.258.074.089.163.089.237 0zm25.764.028c.035-.023.057-.093.048-.156-.012-.086-.046-.115-.137-.115s-.125.029-.137.115c-.014.098.055.197.137.197.013 0 .053-.018.089-.041zm-12.453-1.361c.258-.029.664-.115.903-.192.672-.216 2.204-.844 2.327-.953.156-.139.138-.283-.084-.651-.26-.432-.272-.523-.124-.949.144-.412.158-.745.056-1.325-.106-.605-.124-.82-.072-.898.04-.06.061-.052.13.048.95 1.373 1.636 2.073 2.267 2.315.532.204.906.217 1.61.057.189-.043.295-.033.694.069a3.89 3.89 0 0 0 .68.119c.309 0 .328-.062.297-.97l-.026-.758.128-.116a10.09 10.09 0 0 1 .466-.375c.186-.142.501-.404.7-.582.295-.263.402-.33.579-.358.53-.083 1.03-.456 1.587-1.183.325-.425.363-.56.173-.608-.068-.017-.116-.045-.107-.061l.105-.207c.102-.2.077-.33-.065-.33-.063 0-.162.096-.287.277-.212.309-.711.819-.757.773-.016-.016.11-.167.281-.335.253-.248.331-.364.419-.619.14-.405.149-.547.037-.57-.135-.027-.223.077-.426.504-.163.343-.229.427-.489.624-.308.233-.821.504-.955.504-.207 0-.233-.188-.111-.79.073-.36.073-.407.002-.573-.06-.142-.104-.181-.2-.181-.133 0-.134.003-.143.362-.004.152-.056.348-.14.53-.195.419-.258.891-.166 1.248.072.281.072.282-.05.395-.067.062-.191.151-.276.196-.149.08-.157.08-.261-.024-.145-.145-.292-.112-.933.215-.329.168-.579.264-.684.264-.12 0-.192.034-.264.125-.162.206-.289.616-.329 1.062s-.117.566-.212.325c-.061-.156-.03-.754.057-1.099.066-.262.04-.309-.113-.208-.223.146-.378.441-.428.816-.065.488-.075.512-.177.41-.128-.128-.114-.765.023-1.02.145-.271.379-.48.703-.628.153-.07.277-.141.277-.159s-.151-.138-.334-.266c-.485-.341-1.005-.836-1.491-1.422-.235-.284-.523-.61-.64-.726-.208-.207-.211-.216-.198-.496.025-.508-.171-.964-.526-1.226-.086-.063-.294-.161-.462-.217s-.318-.121-.332-.145.032-.132.104-.24c.17-.256.208-.636.09-.885-.046-.097-.19-.265-.321-.375s-.267-.256-.302-.326c-.043-.084-.073-.389-.088-.899-.018-.608-.045-.839-.125-1.086-.233-.717-.83-1.323-1.58-1.602-.245-.091-.385-.107-.985-.108-.648-.001-.724.008-1.026.128-.399.158-.672.342-.989.666-.482.492-.638.95-.641 1.878-.003.89-.031.991-.357 1.281-.379.338-.461.478-.461.792 0 .202.033.32.146.521l.146.259-.182.072c-.463.184-.565.246-.764.467-.247.274-.311.464-.311.921v.33l-.304.321c-.167.177-.506.566-.753.865-.443.537-.942 1.013-1.375 1.311-.122.084-.222.182-.222.217s.103.093.229.128c.303.085.753.516.828.793.103.38.034.917-.116.901-.027-.003-.064-.158-.083-.344-.04-.39-.161-.659-.38-.843-.188-.158-.246-.114-.188.141.079.349.108.957.052 1.102-.091.234-.171.125-.208-.284-.038-.416-.182-.947-.304-1.119-.058-.081-.125-.109-.268-.109-.133 0-.31-.064-.588-.213-.66-.354-1.097-.432-1.097-.195 0 .1-.049.089-.292-.067-.352-.225-.404-.306-.334-.519.094-.286.034-.876-.124-1.211a1.87 1.87 0 0 1-.162-.618c-.026-.292-.043-.34-.129-.352-.151-.022-.277.152-.282.388-.002.113.038.375.09.582.148.589.032.678-.523.403-.5-.248-.882-.608-1.057-.996-.171-.379-.257-.484-.4-.484-.129 0-.185.116-.117.243.084.157.232.674.185.645-.025-.015-.099-.113-.164-.217-.125-.199-.256-.241-.359-.117-.048.058-.04.111.041.275.055.112.096.204.09.206-.079.019-.207.125-.218.18-.018.093.476.713.865 1.083.354.338.622.49.938.533.247.034.323.083.905.588.225.195.569.468.764.606l.355.251v.833c0 1.1-.061 1.05 1.007.816.423-.093.513-.098.809-.047 1.018.174 1.671-.054 2.461-.862.35-.358.988-1.161 1.18-1.487.199-.336.268.007.133.66-.123.597-.109 1.018.049 1.426a2.01 2.01 0 0 1 .128.438c0 .058-.096.257-.213.441-.427.668-.408.692.964 1.246 1.359.549 1.609.615 2.641.698.047.004.297-.017.555-.045zM7.89 14.904c-.082-.069-.173-.17-.202-.224-.034-.064.026-.033.17.088.122.102.223.203.223.224 0 .061-.031.046-.19-.088zm24.03.086c0-.022.1-.112.223-.2.177-.127.212-.139.169-.06-.05.094-.299.3-.363.3-.016 0-.029-.018-.029-.04zm-23.721-.383c-.028-.02-.147-.143-.265-.275l-.215-.24.277.234c.153.129.277.253.277.276 0 .051-.009.052-.075.005zm11.351-2.408c-.057-.057-.034-.281.04-.388.25-.357.933-.154.883.262-.022.187-.125.189-.172.004-.087-.339-.514-.341-.601-.003-.039.153-.085.19-.15.125zm-.993-.399c-.155-.098-.268-2.583-.151-3.3.147-.897.951-1.45 1.876-1.289.586.102.962.387 1.209.915.12.258.126.307.143 1.329.017 1.005-.047 2.075-.134 2.244-.021.04-.082.079-.137.087-.103.015-.139-.023-.402-.434-.206-.32-.525-.474-.986-.474-.451 0-.709.129-.925.461-.204.314-.352.504-.392.503a.29.29 0 0 1-.101-.044zm.989-1.668c.108-.165.056-.336-.124-.41-.198-.082-.387.034-.387.239 0 .289.356.408.511.172zm1.315.043c.156-.109.128-.352-.052-.452-.119-.066-.146-.066-.265 0-.18.1-.208.343-.052.452.06.042.144.077.185.077s.125-.035.185-.077zm-1.85-.888c.183-.121.34-.122.576-.002.102.052.205.084.227.07.078-.048.045-.435-.043-.515-.308-.277-1.025 0-1.025.395 0 .174.063.186.265.052zm1.434 0c.203-.124.341-.122.574.009.251.141.339.07.221-.178-.116-.243-.336-.362-.671-.362-.229 0-.287.018-.35.107-.089.127-.099.381-.017.462.073.073.056.075.243-.038zM8.794 20.09c.018-.092-.092-.146-.182-.09s-.02.204.083.184c.046-.009.091-.051.099-.094zm22.676.026c.041-.107-.087-.178-.171-.095-.036.036-.051.09-.033.119.049.079.171.064.204-.024zM8.153 18.142c0-.12-.019-.145-.115-.145-.154 0-.239.134-.151.24.036.043.111.072.166.064.077-.011.101-.049.101-.159zm24.032 0c0-.12-.019-.145-.115-.145-.154 0-.239.134-.151.24.036.043.111.072.166.064.077-.011.101-.049.101-.159zM5.209 16.647c0-.106-.15-.159-.229-.081s-.001.209.12.192c.071-.01.109-.049.109-.111zm29.871-.001c0-.144-.188-.129-.209.016-.013.094.003.11.097.097.075-.011.112-.048.112-.112zm-2.271-4.759c-.041-.067-.166-.05-.166.022 0 .035.014.079.032.096.044.044.167-.065.134-.118zm-25.534.03c.005-.026-.028-.055-.075-.064-.053-.01-.084.013-.084.063 0 .084.143.085.159.001zm22.618-3.499c0-.063-.032-.097-.094-.097-.106 0-.168.073-.123.145.056.09.217.054.217-.048zM10.324 8.37c0-.04-.049-.079-.109-.088-.084-.012-.109.008-.109.088s.025.1.109.088c.06-.008.109-.048.109-.088zm5.884-2.826c.104-.104.015-.274-.132-.253-.121.017-.164.157-.08.259.074.089.118.088.212-.006zm8.125-.075c.017-.144-.107-.222-.214-.133-.083.069-.086.22-.006.253.121.05.205.004.22-.12zm-5.431-3.406a.86.86 0 0 1 .241.001c.059.011-.001.021-.133.02s-.181-.01-.108-.021zm1.834 0a.86.86 0 0 1 .241.001c.059.011-.001.021-.133.02s-.181-.01-.108-.021z" fill="#665551"/><path d="M19.842 37.917c.086-.011.238-.011.338 0s.03.019-.156.019-.268-.008-.182-.019zm-1-.478c-4.267-.305-8.191-2.087-11.183-5.079-2.903-2.903-4.694-6.776-5.029-10.879a24.34 24.34 0 0 1-.001-3.05c.416-4.938 3.022-9.581 7.049-12.56 4.389-3.247 10.08-4.228 15.316-2.64 1.369.415 2.981 1.143 4.126 1.862 5.458 3.427 8.67 9.54 8.308 15.813-.092 1.591-.276 2.688-.685 4.087-1.058 3.619-3.378 6.899-6.48 9.163-2.336 1.705-5.256 2.844-8.189 3.194a30.63 30.63 0 0 1-3.233.09zm-.78-1.917c.023-.123-.058-.192-.18-.153-.098.031-.137.167-.067.237.063.063.23.007.247-.084zm3.907-.013c.019-.13-.126-.193-.223-.096s-.036.233.099.214c.068-.01.114-.054.123-.118zm2.281-1.542c.085-.102 0-.237-.148-.237-.129 0-.221.122-.178.235.039.101.243.102.326.003zm-7.726-.09c.076-.091.048-.22-.061-.287-.124-.076-.297.128-.224.265.058.109.204.12.285.022zm3.696-.772c.227-.227.089-.557-.234-.557-.207 0-.314.084-.352.274-.024.124-.006.177.094.277.156.156.339.158.492.005zm5.785-.826c.093-.093.094-.122.011-.236-.093-.127-.321-.066-.321.086 0 .207.171.289.31.15zm-11.122-.139a.2.2 0 0 0-.076-.287c-.168-.065-.353.2-.228.325.057.057.244.034.304-.038zm8.344-.353c.059-.114-.013-.285-.137-.324s-.339.09-.339.209a.25.25 0 0 0 .476.116zm-5.432.033c.078-.124 0-.328-.138-.362s-.311.089-.311.226c0 .212.337.314.449.136zm-6.724-.21c.075-.09.024-.251-.089-.28-.119-.031-.247.047-.247.15 0 .181.222.267.336.13zm18.247-.006c.082-.099.005-.231-.147-.253s-.213.056-.176.206c.036.145.219.172.322.048zm-9.133-1.12c.027-.272-.341-.337-.408-.071-.024.095-.006.146.075.212.151.123.314.054.333-.14zm-6.708-.647c.084-.084.071-.278-.021-.313-.171-.065-.326.159-.209.301.071.085.152.09.23.012zm13.512 0c.087-.087.07-.222-.035-.278-.118-.063-.232-.02-.271.101-.057.18.171.312.306.177zm4.687-.515c.068-.127-.04-.262-.192-.24-.119.017-.174.132-.124.261.039.1.259.086.316-.02zm-22.511-.048c.047-.148-.021-.248-.169-.248-.156 0-.237.153-.141.268.083.1.275.088.31-.02zm10.953-.131c.162-.162.035-.395-.186-.34-.157.039-.206.202-.097.322.102.113.182.118.283.017zm-8.755-.889c.096-.096.127-.314.06-.415a.34.34 0 0 0-.568.032c-.17.33.247.644.508.383zm17.855 0c.218-.218.007-.626-.287-.555-.262.064-.356.315-.194.52.125.159.342.174.482.034zm-11.713-.816c.064-.024.194-.153.29-.285.134-.186.241-.272.467-.373.34-.153.522-.341.732-.759.083-.165.255-.462.382-.661.382-.596.412-.75.194-.969-.103-.103-.187-.141-.312-.141-.197 0-.253.079-.389.553-.148.514-.348.833-.608.968-.068.036-.305.111-.526.167-.443.113-1.362.449-1.537.562-.147.095-.131.324.024.346.074.011.11.054.121.144.02.173.169.201.229.042.058-.153.233-.275.388-.27.109.003.105.01-.044.064-.207.075-.362.271-.32.405.065.206.328.166.384-.059.017-.066.073-.144.126-.172.113-.06.121-.013.022.118-.093.122-.09.153.026.268.107.107.179.118.351.052zm-1.098-.775c.104-.104.447-.199.391-.109-.018.029-.097.066-.176.084s-.156.052-.171.076-.053.045-.084.045-.013-.043.039-.095zm6.474.703l.135-.117-.11-.149c-.061-.082-.093-.149-.072-.148.084.002.158.084.229.254.041.099.098.179.126.179.11 0 .237-.105.237-.196 0-.077.023-.09.115-.067.138.035.194-.037.154-.198-.02-.079-.112-.16-.282-.248-.161-.083-.223-.137-.173-.148.129-.028.433.123.461.229s.179.133.232.048-.028-.24-.161-.305c-.142-.069-.818-.256-1.595-.441-.557-.132-.692-.201-.827-.425a2.75 2.75 0 0 1-.241-1.01c-.001-.305-.044-.425-.154-.425-.237 0-.521.309-.521.568 0 .052.065.212.145.355a30.33 30.33 0 0 1 .391.743c.3.588.41.711.825.921.236.12.363.222.472.38.237.344.389.394.614.2zm.327-.487c-.079-.064-.118-.118-.088-.119.072-.002.29.175.257.209-.014.014-.09-.026-.169-.091zm3.716-.675c.611-.093 1.85-.38 2.3-.533.19-.065.44-.173.555-.24.312-.183.666-.561.821-.877.118-.241.137-.337.137-.69s-.019-.449-.137-.69c-.076-.154-.243-.386-.373-.515-.382-.382-.695-.504-1.977-.77l-1.721-.384c-.324-.082-.643-.149-.709-.149-.072 0-.213.08-.347.196-.463.401-1.339.946-2.274 1.416-.297.149-.555.295-.573.324-.064.103.106.136.583.111 1.975-.103 1.951-.1 2.483-.282.926-.317 1.567-.392 2.069-.243.429.127.302.172-.39.137-.51-.026-.723-.015-1.05.051-.732.148-.826.261-.36.436.4.151.795.355.795.412 0 .076-.076.059-.792-.176l-.68-.223-.965.03c-1.787.056-2.261.088-2.413.163-.19.094-.355.247-.438.406-.228.438-.064 1.437.264 1.606.255.132 1.977.465 2.877.556a12.09 12.09 0 0 0 2.315-.071zm-.845-.774c-.806-.146-1.612-.515-2.115-.967-.358-.322-.255-.377.195-.104a6.49 6.49 0 0 0 1.456.688c.491.164 1.208.313 1.507.313.196 0 .319.044.284.102-.04.065-.91.044-1.326-.031zm-10.656.797c.804-.08 1.9-.389 2.534-.715.408-.21.645-.628.682-1.204.021-.318.012-.363-.089-.471-.143-.152-.372-.214-.794-.215-.186 0-.685-.033-1.11-.072-1.479-.137-1.818-.104-2.764.271-.193.077-.385.139-.426.139-.172 0-.006-.135.444-.363.263-.133.479-.263.479-.289 0-.065-.3-.158-.716-.223-.289-.045-.944-.036-1.407.019-.161.019-.145-.079.029-.181.136-.08.246-.096.647-.092.437.004.547.025 1.171.229.56.183.754.225 1.038.225.192 0 .592.022.888.048.545.048.692.034.691-.066 0-.03-.331-.229-.735-.441-.896-.471-1.419-.783-1.789-1.068-.424-.327-.437-.33-.904-.21-.224.058-.908.208-1.519.335-1.21.251-1.507.363-1.908.716-.121.107-.295.332-.386.5-.153.283-.165.336-.165.739 0 .381.017.469.139.717.193.394.577.761 1.006.965.544.258 2.043.616 2.948.704.589.057 1.455.058 2.019.002zm-3.071-.884c-.123-.093-.086-.108.458-.178.84-.109 1.691-.389 2.494-.822.314-.169.454-.222.479-.181.11.177-1.031.848-1.839 1.081-.552.159-1.441.215-1.592.1zm-7.175.532c-.012-.081-.048-.105-.159-.105-.171 0-.229.151-.096.248.118.086.275-.002.255-.143zm30.023.138c.086-.104.016-.277-.106-.258-.143.021-.217.156-.137.252s.167.098.243.006zm-28.423-.048c.082-.098.042-.244-.066-.244-.132 0-.208.141-.129.237s.12.096.194.006zm1.633.012c.032-.032.058-.114.058-.183 0-.159-.082-.241-.241-.241s-.241.082-.241.241.082.241.241.241c.069 0 .152-.026.183-.058zm23.632-.056c.158-.24-.107-.5-.349-.342-.121.079-.15.3-.052.398s.319.069.401-.056zm1.416.072c.035-.023.057-.093.048-.156-.012-.086-.047-.115-.136-.115-.136 0-.188.132-.095.244.067.08.094.084.183.028zm-13.071-.824c.061-.039.056-.09-.036-.376-.059-.182-.138-.373-.176-.425-.062-.083-.078-.086-.138-.022-.098.104-.333.725-.303.803s.54.092.654.019zm-12.841-.809c.061-.11-.017-.255-.138-.255s-.2.14-.14.252.217.111.277.002zm25.195-.01c.058-.108.024-.226-.074-.264a.18.18 0 0 0-.24.122c-.063.2.216.325.314.141zm-11.29-1.032c.924-.22 1.448-.451 3.046-1.34.475-.265.92-.502.988-.528s.116-.074.105-.107c-.018-.058-.475-.227-1.254-.464l-.372-.113-1.1.436c-1.285.509-1.488.568-2.246.645a4.81 4.81 0 0 1-1.134.001c-.676-.068-.95-.143-1.966-.539l-1.11-.422-.338-.121-1.038.315c-.824.25-1.038.332-1.038.397 0 .058.282.229.965.583 1.565.811 2.689 1.211 3.909 1.388.08.012.579.014 1.11.006.828-.013 1.037-.032 1.472-.136zm-2.413-.394c-.6-.12-1.598-.509-1.738-.677-.088-.106.017-.093.439.053 1.647.57 3.333.526 4.857-.126l.533-.226c.12-.047.057.127-.082.226-.24.171-.877.47-1.23.578-.772.236-2.061.316-2.778.173zm-13.61.365c.038-.071.031-.112-.028-.171-.089-.089-.159-.078-.229.034-.035.055-.03.1.015.154.085.103.182.096.243-.017zm29.409-.015c.04-.064.034-.102-.027-.163-.145-.145-.36.044-.23.201.075.09.187.074.257-.038zm-27.552-.402c.146-.146.062-.358-.141-.358s-.287.213-.141.358c.042.042.105.076.141.076s.1-.034.141-.076zm25.768.013c.181-.132-.011-.46-.2-.342-.105.066-.135.242-.058.335.072.086.147.088.259.007zm-12.011-1.427c.463-.096 2.592-.91 2.782-1.064.077-.062.107-.136.103-.255-.005-.163-.038-.239-.282-.641-.148-.244-.148-.359.002-.787.138-.395.149-.662.051-1.198-.108-.586-.138-.919-.087-.951.025-.016.156.139.289.344.333.51 1.057 1.344 1.397 1.611.68.533 1.342.683 2.181.494.33-.075.359-.074.72.024.207.056.508.115.67.132.281.029.298.025.379-.098.076-.115.081-.211.051-.894l-.034-.764.497-.385c.273-.212.64-.517.814-.677.273-.252.354-.299.589-.342.38-.07.635-.213.993-.556.257-.246.759-.852.894-1.079.021-.035-.014-.11-.087-.182-.12-.12-.121-.125-.041-.293.155-.325-.105-.484-.339-.207l-.137.162.034-.145c.019-.08.063-.203.1-.275.137-.273.053-.42-.204-.356-.099.025-.163.114-.31.432-.208.45-.446.696-.944.974-.638.357-.736.28-.582-.458.096-.461.096-.467.003-.657-.168-.345-.484-.273-.429.098.025.165-.001.277-.138.608-.205.495-.26.926-.164 1.285.075.28.081.267-.246.493-.147.101-.166.104-.245.032-.158-.143-.405-.094-.958.188-.343.175-.579.265-.693.265-.328 0-.552.407-.632 1.148-.028.258-.06.479-.072.491s-.042-.009-.066-.048c-.068-.107-.054-.656.027-1.036.039-.186.072-.354.072-.374 0-.07-.113-.035-.268.083-.233.178-.408.563-.408.901 0 .152-.021.29-.046.306-.138.085-.197-.493-.089-.862.084-.286.479-.668.799-.774.138-.046.252-.109.252-.141s-.174-.183-.386-.336c-.515-.373-.901-.736-1.341-1.262a16.46 16.46 0 0 0-.652-.733l-.288-.297-.008-.411c-.007-.351-.029-.452-.151-.69-.174-.341-.435-.55-.863-.693-.309-.103-.371-.155-.263-.221.098-.061.234-.429.235-.638.002-.305-.101-.499-.4-.757-.147-.127-.29-.288-.316-.358s-.058-.463-.07-.874c-.026-.872-.108-1.199-.421-1.676-.503-.767-1.303-1.171-2.314-1.171-.821 0-1.451.246-1.98.772-.561.559-.722 1.005-.724 2.001-.002.874-.027.96-.385 1.275-.162.143-.326.321-.364.396-.113.219-.089.613.053.861.124.217.126.342.007.342-.158 0-.666.307-.811.489-.212.267-.28.487-.282.913-.002.355-.007.369-.176.531-.096.091-.434.476-.752.855-.554.66-.992 1.083-1.495 1.445-.128.092-.233.196-.233.232s.112.101.25.147c.299.099.647.403.77.673.102.223.121.746.033.908-.05.093-.064.056-.116-.299-.062-.432-.2-.694-.467-.892-.194-.144-.228-.063-.153.355.069.384.088.859.04.985-.061.159-.103.063-.134-.309-.037-.447-.165-.894-.316-1.106-.088-.123-.139-.149-.294-.149-.13 0-.335-.075-.664-.241-.266-.134-.579-.255-.708-.273-.202-.028-.241-.018-.311.074l-.08.106-.264-.186c-.217-.153-.261-.207-.245-.303.01-.065.019-.324.02-.576.002-.412-.014-.493-.151-.804-.111-.251-.153-.418-.153-.609 0-.295-.075-.4-.256-.354-.253.064-.306.403-.157 1.001.111.448.086.549-.127.507s-.701-.324-.977-.568c-.163-.143-.281-.306-.378-.523-.078-.173-.186-.363-.242-.423-.217-.236-.496-.056-.35.226.041.079.074.18.074.225 0 .077-.006.077-.088.002-.232-.21-.448-.012-.32.293.073.174.072.185-.023.248-.055.036-.099.105-.099.153 0 .209 1.039 1.332 1.408 1.521.124.064.319.13.434.148.281.043.321.067.752.456.205.185.577.482.826.659l.453.322-.034.708c-.028.58-.02.74.04.883.068.163.088.175.281.175.114 0 .443-.054.731-.119.494-.112.539-.115.82-.049.876.207 1.673-.062 2.42-.814.358-.361.879-1.004 1.123-1.387.099-.156.197-.283.217-.284.059-.002.038.483-.036.819-.105.477-.092.964.034 1.292.169.44.149.657-.094.996-.234.326-.273.579-.112.725.092.084 1.635.736 2.227.942.494.172.895.234 1.541.238.414.003.74-.024 1.038-.086zm-1.472-9.432c0-.229.345-.42.591-.327.154.059.294.257.266.376-.017.073-.029.067-.071-.036a.39.39 0 0 0-.305-.262c-.148-.037-.384.127-.384.268 0 .051-.022.093-.048.093s-.048-.051-.048-.112zm-1.001-.286c-.137-.173-.193-3.037-.068-3.467.105-.361.374-.671.749-.862.3-.153.363-.167.746-.167.347 0 .465.022.688.125.341.157.601.416.762.76.124.264.127.292.139 1.428.008.731-.01 1.345-.049 1.665-.057.466-.071.508-.17.522-.08.011-.13-.025-.192-.138-.208-.378-.361-.54-.623-.66-.233-.107-.315-.12-.646-.1-.457.026-.699.162-.914.511-.286.464-.328.502-.422.384zm1.018-1.592c.079-.107.089-.159.052-.265-.124-.353-.648-.283-.648.088 0 .327.397.445.596.178zm1.253.101c.139-.073.176-.135.177-.291.001-.14-.192-.329-.337-.329-.046 0-.141.045-.211.1-.171.134-.171.341 0 .476.145.114.221.123.371.045zm-1.814-.91c.156-.122.38-.123.579-.001.22.134.302.086.302-.176 0-.291-.063-.389-.29-.45-.391-.105-.916.192-.916.518 0 .234.117.273.325.109zm1.424 0a.67.67 0 0 1 .279-.096.67.67 0 0 1 .279.096c.2.122.286.122.325-.002.042-.131-.109-.381-.312-.517-.121-.082-.231-.109-.44-.109-.244 0-.291.016-.379.127a.49.49 0 0 0-.05.503c.063.117.102.117.299-.003zM8.823 20.133c.04-.064.034-.102-.027-.163-.145-.145-.36.044-.23.201.075.09.187.074.257-.038zm22.682-.004c.043-.069.035-.101-.036-.154-.156-.116-.34.053-.218.201.072.087.184.066.253-.047zM8.168 18.301c.128-.128.035-.376-.141-.376-.099 0-.235.125-.235.217 0 .169.258.278.376.159zm24.032 0c.128-.128.035-.376-.141-.376-.099 0-.235.125-.235.217 0 .169.258.278.376.159zM5.237 16.738c.085-.102 0-.237-.148-.237s-.233.135-.148.237c.035.042.102.076.148.076s.113-.034.148-.076zm29.892-.092c0-.129-.016-.145-.144-.145-.101 0-.149.026-.161.087-.03.157.031.234.172.218.112-.013.133-.038.133-.16zM7.348 11.901c-.009-.048-.07-.088-.148-.096-.113-.013-.132.002-.132.105 0 .066.027.13.06.141.096.035.236-.061.22-.15zm25.489.112c.086-.103.024-.218-.119-.218-.192 0-.166.261.029.286.017.002.057-.028.09-.068zm-2.904-3.58c.02-.141-.137-.229-.256-.142-.06.044-.075.094-.051.17.047.148.284.126.306-.027zm-19.588.015c.081-.098.012-.223-.122-.223-.125 0-.19.098-.145.217.035.091.194.094.267.006zm5.889-2.874c.118-.118.08-.284-.075-.323a.24.24 0 0 0-.187.031c-.098.081-.091.273.013.333.118.069.144.065.25-.041zm8.101.035c.081-.081.072-.256-.016-.329-.056-.047-.102-.048-.193-.007-.194.088-.136.394.074.394.042 0 .103-.026.135-.058zm-5.455-3.545c.033-.013.087-.013.121 0s.006.024-.06.024-.093-.011-.06-.024zm2.004-.001c.047-.012.112-.011.145.002s-.006.023-.085.022-.106-.012-.059-.024z" fill="#4a3837"/><path d="M18.576 37.367a17.69 17.69 0 0 1-6.985-2.099c-4.507-2.516-7.658-6.831-8.647-11.842-.25-1.266-.294-1.79-.292-3.499.001-1.666.033-2.048.269-3.257a17.36 17.36 0 0 1 3.916-8.083c3.35-3.883 8.051-6.054 13.114-6.055 4.579-.002 8.822 1.736 12.132 4.967 3.701 3.613 5.624 8.538 5.294 13.555-.241 3.661-1.426 6.795-3.675 9.717-.547.711-2.081 2.269-2.797 2.842-3.439 2.751-7.843 4.092-12.33 3.753zm-.509-1.754c.069-.083.027-.248-.072-.286-.168-.064-.301.1-.213.263.059.11.204.122.286.023zm3.909 0c.097-.117.015-.276-.135-.258-.13.015-.186.124-.135.259.034.09.194.09.269-.001zm2.26-1.58c.08-.08.073-.256-.014-.328a.24.24 0 0 0-.338.094c-.068.214.196.389.352.233zm-7.703-.118c.158-.143.081-.354-.129-.354a.22.22 0 0 0-.004.433c.024.001.084-.034.133-.078zm3.7-.757c.175-.138.149-.509-.043-.612-.28-.15-.577.02-.577.331 0 .329.355.49.62.28zm5.788-.862c.156-.156-.019-.42-.233-.352a.24.24 0 0 0-.094.338c.072.086.248.094.328.014zm-11.112-.159c.097-.153.01-.314-.17-.314-.185 0-.284.169-.195.335.07.131.277.119.366-.021zm2.869-.265c.11-.11.123-.236.036-.349-.173-.224-.58-.015-.494.254.059.187.314.24.458.096zm5.425.021c.09-.09.1-.315.018-.397s-.353-.072-.425.015c-.088.106-.073.32.027.394.118.086.287.081.379-.012zm-12.163-.228c.057-.042.08-.11.07-.205-.013-.115-.042-.145-.152-.158-.243-.028-.364.185-.199.35.092.092.168.096.281.013zm18.261.005c.128-.128.035-.376-.141-.376-.099 0-.235.125-.235.217 0 .169.258.278.376.159zm-9.139-1.031c.174-.174.04-.423-.215-.398-.13.012-.176.044-.212.147-.086.247.239.439.427.251zm-6.641-.802c.187-.187-.083-.482-.28-.304-.166.15-.095.362.12.362.056 0 .127-.026.159-.058zm13.522-.039c.084-.158-.02-.299-.208-.28-.119.011-.157.04-.17.127-.025.179.026.25.182.25.095 0 .162-.033.196-.097zm4.623-.396c.032-.032.058-.104.058-.159s-.026-.127-.058-.159-.104-.058-.159-.058-.127.026-.159.058-.058.104-.058.159.026.127.058.159.104.058.159.058.127-.026.159-.058zm-22.544-.027c.118-.075.097-.333-.031-.373-.235-.074-.393.102-.265.296.074.114.192.144.297.077zm11.068-.276c.055-.143.021-.251-.099-.315s-.315.016-.347.139c-.068.26.351.426.446.176zm-8.882-.771c.34-.176.217-.653-.167-.653-.47 0-.477.684-.008.721.021.002.1-.029.175-.068zm17.857-.001c.312-.161.202-.612-.157-.643-.391-.033-.527.52-.164.666.147.059.165.058.321-.023zm-11.658-.843c.067-.025.202-.154.301-.287a.99.99 0 0 1 .452-.359c.371-.161.53-.336.85-.932.15-.28.322-.566.382-.636.093-.109.12-.118.186-.062.08.066.647.056.806-.014.06-.026.151.11.429.645.372.716.411.759.897 1.004.218.11.327.202.431.366.199.315.558.399.72.168.057-.081.071-.083.125-.018.087.105.181.091.319-.047.066-.066.148-.121.181-.121.088 0 .176-.102.176-.203 0-.054.036-.087.093-.087.141 0 .176-.181.064-.331-.098-.131-.489-.257-1.707-.549-.282-.068-.568-.16-.637-.205-.175-.115-.31-.422-.372-.846-.124-.844-.109-.795-.242-.811-.157-.018-.437.169-.524.352l-.068.141-.043-.117c-.057-.154-.181-.288-.266-.288-.037 0-.119.114-.183.253s-.116.214-.118.167c-.009-.279-.279-.489-.588-.46-.161.015-.165.021-.339.534-.289.85-.403.976-1.017 1.124-.503.12-1.538.505-1.666.619-.15.133-.137.418.018.418.038 0 .089.055.115.122s.098.141.161.165.127.075.142.113c.044.114.217.13.342.031.114-.09.116-.089.141.005.014.053.076.116.138.141.148.059.158.059.3.005zm9.379-1.235c.662-.098 1.644-.319 2.232-.502.91-.283 1.433-.767 1.62-1.498.208-.814-.227-1.639-1.076-2.038-.198-.093-.616-.206-1.231-.331-.512-.104-1.285-.276-1.718-.382s-.847-.193-.919-.193-.153-.021-.178-.046-.407-.158-.849-.296l-.803-.25-1.103.439c-1.484.59-1.752.653-2.792.656-1.011.003-1.264-.05-2.461-.513l-1.198-.46-.329-.124-.926.277-1.022.301a.88.88 0 0 0-.206.094c-.06.038-.13.057-.155.041s-.323.037-.662.117-1.032.23-1.54.334c-.754.154-.986.222-1.267.37-1.188.624-1.418 1.948-.499 2.867.416.416.789.58 1.975.868.994.241 1.579.31 2.644.311.534.001 1.144-.026 1.365-.059.77-.116 1.939-.509 2.379-.8.276-.182.489-.651.517-1.136.021-.355.014-.387-.099-.5-.157-.157-.411-.224-.857-.226a13.72 13.72 0 0 1-1.038-.071c-.372-.038-.936-.071-1.255-.071-.562-.001-.597.005-1.206.215l-.651.216c-.068-.003.21-.171.519-.314.229-.106.35-.189.35-.242s.024-.07.084-.045c.046.019.399.053.784.076l.946.069c.341.04.511-.008.492-.139-.011-.078-.172-.184-.667-.441-.721-.373-1.432-.782-1.472-.847-.014-.023.339.139.784.361 1.656.823 2.733 1.129 4.14 1.173 1.736.054 2.668-.217 4.804-1.398.888-.491.884-.489.845-.426-.091.148-1.233.849-2.041 1.253-.591.295-.684.387-.499.486.135.072 2.474-.065 2.743-.161.204-.073.205-.073.205.039 0 .094.049.131.302.223.325.119.76.324.76.358 0 .027-.304-.066-.796-.242-.342-.122-.464-.14-1.062-.155-.372-.009-1.171.014-1.776.051-1.089.066-1.103.069-1.299.207-.306.216-.398.441-.394.96.004.532.116.865.341 1.017.232.156 1.836.482 2.943.598a11.37 11.37 0 0 0 2.271-.073zm-.792-.865a4.89 4.89 0 0 1-1.367-.465c-.361-.186-.943-.612-.898-.657.013-.013.15.052.304.145.95.572 1.634.803 3.007 1.016.066.01-.064.02-.29.021a4.99 4.99 0 0 1-.756-.061zm-13.663-.066c-.039-.025.101-.062.362-.099.873-.121 1.707-.396 2.512-.83.736-.397.482-.094-.302.359a4.86 4.86 0 0 1-1.453.538c-.38.078-1.017.096-1.12.032zm-.251-2.282c0-.021.124-.075.275-.119.308-.09.797-.07 1.173.046.209.065.196.066-.314.046-.292-.012-.667-.002-.832.022s-.302.027-.302.005zm14.274-.104c.263-.077 1.04-.092 1.263-.024.2.061.159.065-.59.064-.479-.001-.752-.017-.673-.04zm-7.518-.079a5.96 5.96 0 0 1-1.336-.481c-.215-.114-.145-.132.117-.031.554.215 1.62.412 2.234.412.882 0 1.923-.217 2.737-.571.478-.208.574-.208.241-.001-.845.526-1.782.768-2.95.762-.412-.002-.776-.034-1.043-.09zM5.185 25.984c.037-.069.037-.124 0-.193-.091-.17-.386-.097-.386.097s.295.267.386.097zm3.233 0c.053-.053.097-.14.097-.193 0-.128-.166-.29-.298-.29-.26 0-.383.358-.174.504.144.101.259.095.375-.021zM32.024 26c.189-.171.064-.499-.189-.499-.271 0-.396.293-.205.483.117.117.276.124.394.017zm3.223-.013c.092-.171-.052-.328-.244-.268-.113.036-.165.201-.09.29.083.1.275.087.334-.023zm-28.431-.013c.087-.087.07-.222-.035-.278-.118-.063-.232-.02-.271.101-.057.18.171.312.306.177zm26.715-.018c.051-.132.032-.208-.064-.26-.172-.092-.328.052-.267.246.036.114.288.124.33.013zm-26.01-1.531c.181-.132-.011-.46-.2-.342-.119.075-.136.265-.032.342.047.035.1.063.116.063s.069-.028.116-.063zm25.19 0c.057-.042.08-.11.07-.205-.015-.127-.034-.142-.185-.142s-.171.015-.185.142.082.268.185.268c.016 0 .068-.028.116-.063zm2.173-1.128c.049-.128-.063-.264-.205-.248-.156.018-.21.216-.084.309.096.07.251.037.288-.061zM5.45 23.209c0-.12-.022-.147-.125-.159-.169-.02-.262.095-.189.231.039.073.092.098.184.088.108-.013.129-.039.129-.16zm1.909-.391c.101-.274-.257-.48-.415-.239-.076.116-.076.131 0 .247.102.156.357.152.415-.008zm25.765.032c.027-.051.05-.126.05-.165 0-.1-.134-.224-.241-.224a.27.27 0 0 0-.183.425c.092.092.318.07.375-.035zm-12.2-1.326c.453-.087.628-.147 1.818-.617.54-.213 1.036-.435 1.103-.492.187-.161.165-.395-.076-.793-.109-.18-.198-.382-.198-.449s.054-.277.121-.467c.138-.394.149-.66.052-1.198-.154-.854-.145-1.006.041-.681.159.278.982 1.27 1.286 1.552.719.665 1.442.87 2.384.676.355-.073.389-.072.765.023 1.13.285 1.175.248 1.12-.928l-.034-.738.402-.31c.221-.171.581-.47.801-.665.362-.321.429-.361.715-.421.384-.08.578-.194.979-.574.369-.35.875-1.006.875-1.135 0-.051-.046-.125-.103-.164-.1-.07-.101-.078-.024-.268s.074-.201-.018-.293c-.116-.116-.141-.118-.279-.021-.127.089-.139.029-.032-.176.092-.178.052-.323-.098-.361-.189-.047-.297.057-.499.479-.218.458-.473.713-.978.982-.325.173-.514.202-.558.086-.016-.04.007-.213.05-.384.146-.581.082-.968-.174-1.058-.199-.07-.279.028-.279.343 0 .194-.041.355-.156.609-.146.322-.156.381-.153.853.002.279.013.548.024.599.014.066-.039.135-.185.238-.195.139-.208.142-.27.057-.113-.155-.495-.079-1.046.208-.313.163-.535.248-.648.248-.32 0-.573.423-.676 1.126-.061.418-.065.428-.07.171-.003-.15.028-.449.069-.665s.061-.414.045-.44c-.064-.104-.218-.035-.42.189-.229.255-.327.501-.327.822 0 .123-.019.191-.048.173s-.048-.153-.047-.304c.002-.516.256-.87.807-1.125.167-.077.302-.171.302-.21s-.168-.194-.374-.346c-.631-.465-.866-.69-1.506-1.441-.339-.398-.663-.765-.72-.816-.089-.079-.103-.145-.103-.466 0-.684-.351-1.154-1.025-1.374-.14-.046-.262-.09-.271-.098s.025-.076.077-.15c.336-.482.251-.962-.245-1.386-.339-.289-.369-.39-.369-1.238 0-.97-.191-1.49-.753-2.054-1.188-1.191-3.385-1-4.32.377-.329.485-.386.716-.423 1.712l-.032.876-.368.354c-.29.279-.376.393-.403.537-.049.26.01.559.152.774.067.102.115.19.106.197a3.99 3.99 0 0 1-.246.097c-.646.24-.954.644-.99 1.302-.022.388-.024.394-.246.633-.123.133-.39.448-.593.7-.428.533-1.098 1.196-1.511 1.496-.159.116-.304.231-.321.257-.062.093.015.161.274.243.183.058.335.153.5.315.271.264.345.46.338.898l-.004.29-.064-.319c-.081-.405-.22-.679-.426-.836-.296-.226-.408-.147-.324.227a5.17 5.17 0 0 1 .073.648l.023.426-.067-.41c-.14-.851-.313-1.158-.653-1.158-.128 0-.334-.076-.663-.244-.58-.296-.98-.369-1.072-.196l-.055.104-.213-.146c-.117-.08-.225-.167-.241-.193s-.002-.175.03-.331c.07-.34-.009-.803-.222-1.305-.103-.242-.125-.352-.101-.51.037-.248-.084-.395-.284-.345-.251.063-.34.502-.196.975.04.13.072.307.072.394.001.211-.107.207-.539-.02-.494-.26-.765-.525-.971-.952-.201-.418-.359-.555-.543-.472-.129.059-.158.23-.068.399.045.085.038.092-.068.065-.265-.067-.395.148-.264.436.05.109.043.134-.048.198-.058.04-.105.114-.105.162 0 .116.523.759.955 1.174.365.35.618.489.993.544.202.03.287.081.592.36a12.81 12.81 0 0 0 .839.681l.482.356-.013.803c-.011.732-.004.812.079.905.122.136.336.132.999-.018.502-.113.546-.116.83-.049 1.234.291 2.205-.286 3.479-2.068l.271-.379-.002.21c-.001.116-.033.351-.071.524-.104.471-.092.963.031 1.292.18.483.173.571-.075.952-.213.328-.266.528-.192.722.041.108.263.214 1.413.676.851.342 1.22.462 1.766.574.241.049 1.302.025 1.624-.037zm-2.392-9.978c-.074-.574-.106-1.555-.078-2.355.028-.788.044-.917.138-1.097.164-.316.376-.528.676-.675.242-.119.329-.135.733-.135.553 0 .802.096 1.13.432.344.354.397.562.435 1.691.023.702.013 1.138-.037 1.6-.096.884-.115.902-.434.41-.24-.371-.429-.511-.801-.59-.596-.128-1.088.085-1.405.607-.221.365-.32.396-.357.111zm1.046-1.329c.127-.114.113-.422-.023-.517-.335-.234-.754.108-.565.462.103.192.405.221.588.055zm1.384-.044c.055-.07.1-.165.1-.211s-.045-.141-.1-.211c-.077-.098-.143-.127-.286-.127s-.209.029-.286.127c-.055.07-.1.165-.1.211s.045.141.1.211c.077.098.143.127.286.127s.209-.029.286-.127zM19 9.383c.146-.115.45-.126.587-.023.151.114.31.09.346-.052.048-.192-.016-.471-.129-.564s-.49-.114-.705-.033c-.316.119-.547.521-.401.697.08.097.156.09.302-.025zm2.342-.102c.028-.329-.339-.622-.779-.622-.373 0-.598.305-.471.64.057.151.216.177.369.061.136-.103.424-.092.559.022.176.148.304.108.322-.101zm-1.354 2.435c.033-.013.087-.013.121 0s.006.024-.06.024-.093-.011-.06-.024zM8.802 20.22c.032-.038.051-.12.042-.181-.012-.088-.046-.111-.161-.111s-.148.023-.161.111c-.017.122.065.251.161.251.033 0 .087-.031.118-.07zm22.704-.006c.092-.092.094-.122.013-.233-.09-.123-.294-.085-.315.058-.03.213.156.321.302.175zm-23.34-1.881c.187-.131.095-.456-.128-.456-.254 0-.366.39-.138.481.148.059.145.06.267-.025zm24.032 0c.239-.168.029-.515-.248-.41-.187.071-.175.377.018.45.11.042.115.041.231-.04zM5.231 16.794c.137-.165-.052-.445-.227-.335s-.11.405.084.405c.047 0 .111-.031.143-.07zm29.894-.006c.042-.042.076-.105.076-.141 0-.076-.13-.217-.2-.217-.113 0-.235.108-.235.209a.2.2 0 0 0 .358.149zm-27.777-4.84c.022-.152-.054-.219-.206-.181-.089.022-.124.063-.124.143 0 .146.043.184.191.166.087-.01.127-.048.139-.128zm25.512-.031c0-.129-.016-.145-.144-.145-.101 0-.149.026-.161.087-.03.157.031.234.172.218.112-.013.133-.038.133-.16zm-2.92-3.402c.079-.148-.021-.299-.184-.28-.132.015-.193.155-.135.308.04.104.259.085.319-.028zm-19.602-.01c.032-.032.058-.107.058-.168 0-.132-.203-.204-.314-.111-.135.112-.054.337.121.337.042 0 .103-.026.135-.058zm5.96-2.939c.069-.111.002-.321-.113-.358-.224-.071-.437.241-.275.403.08.08.328.051.389-.045zm8.083.043c.032-.032.058-.104.058-.159 0-.137-.09-.217-.241-.217s-.241.081-.241.217c0 .056.026.127.058.159a.33.33 0 0 0 .367 0z" fill="#fff"/></svg>